<svg version="1.1" id="Layer_1" xmlns="http://www.w3.org/2000/svg" xmlns:xlink="http://www.w3.org/1999/xlink" x="0px" y="0px"
	 width="100%" viewBox="0 0 1254 1254" enable-background="new 0 0 1254 1254" xml:space="preserve">
<path fill="#9EA5AD" opacity="1.000000" stroke="none" 
	d="
M1021.657776,200.318390 
	C1034.187622,208.356049 1033.484741,207.114197 1029.299316,221.268661 
	C1018.543701,257.643066 1007.686646,293.987793 996.731995,330.302673 
	C995.778748,333.462646 995.836365,335.875000 997.790161,338.655212 
	C1013.109985,360.455872 1028.244873,382.386749 1043.631958,404.139404 
	C1044.725342,405.685150 1047.366699,406.964935 1049.291382,406.969269 
	C1078.122070,407.034302 1106.953369,406.889008 1135.784180,406.726929 
	C1141.272217,406.696045 1146.758057,406.259583 1152.246094,406.231232 
	C1157.099976,406.206146 1160.202148,408.189819 1161.420288,413.453644 
	C1170.086182,450.904297 1178.955688,488.307861 1187.787231,525.720154 
	C1188.968506,530.724670 1187.614258,534.322937 1182.968872,537.022217 
	C1153.023315,554.422363 1123.178345,571.996216 1093.228760,589.389465 
	C1090.475098,590.988647 1089.408936,592.833252 1088.912720,595.974487 
	C1084.583130,623.384766 1080.004272,650.755737 1075.509888,678.140015 
	C1074.971802,681.418335 1074.976318,684.875366 1073.896606,687.957886 
	C1071.030884,696.139343 1074.247925,701.099915 1080.537964,706.544983 
	C1104.459717,727.253174 1127.784302,748.651611 1151.318970,769.806641 
	C1156.903198,774.826294 1156.985840,776.919067 1153.378784,783.561035 
	C1138.753174,810.492249 1124.257202,837.493896 1109.740845,864.484314 
	C1100.668335,881.352905 1091.661499,898.256714 1082.589111,915.125305 
	C1079.989990,919.957825 1076.695068,921.084778 1071.285400,918.763367 
	C1040.682861,905.631042 1009.810059,893.068237 979.680481,878.924561 
	C968.372559,873.616211 961.191284,875.287659 952.087524,883.024475 
	C934.341003,898.106506 915.432373,911.825867 896.907959,925.982483 
	C894.333923,927.949585 892.989014,929.867615 892.810547,933.307556 
	C891.284851,962.716614 889.541870,992.114624 887.802979,1021.512390 
	C886.997498,1035.129395 886.045288,1048.737549 885.184082,1062.351196 
	C884.904968,1066.763428 882.984375,1069.819824 878.637634,1071.368408 
	C846.490234,1082.820679 814.371216,1094.352661 782.228271,1105.817261 
	C776.014282,1108.033691 772.666687,1106.326416 769.872437,1100.393799 
	C755.749939,1070.410278 741.173401,1040.632935 727.591309,1010.407959 
	C724.085632,1002.606567 719.902222,1000.585571 711.882812,1000.992981 
	C689.939453,1002.107788 667.947754,1002.248840 645.987732,1003.098267 
	C643.858826,1003.180664 641.021912,1005.007812 639.852234,1006.867126 
	C618.837097,1040.272339 598.055481,1073.824463 577.154968,1107.302124 
	C572.368042,1114.969604 570.418274,1115.448120 562.583496,1111.411133 
	C516.089417,1087.455322 469.603455,1063.483765 423.123566,1039.500366 
	C416.153687,1035.903809 415.678345,1030.863403 421.850769,1026.761230 
	C490.237030,981.311829 558.563171,935.771484 627.103455,890.555542 
	C633.789978,886.144348 636.710571,881.250977 636.303711,873.378418 
	C635.822693,864.070862 636.277527,854.718140 636.175781,845.386597 
	C636.114807,839.796326 637.970520,835.735657 642.963623,832.518982 
	C682.866577,806.811523 722.630066,780.887878 762.431824,755.023499 
	C765.853699,752.799744 769.289246,750.622986 773.514709,752.972778 
	C777.651550,755.273193 777.960510,759.200623 777.934753,763.361877 
	C777.867737,774.193970 777.895630,785.026917 777.942871,795.859314 
	C777.985413,805.612244 784.222595,810.667542 793.618896,808.578613 
	C823.981689,801.828613 850.887695,788.164001 874.416565,767.880676 
	C908.310547,738.662231 929.642334,701.765137 941.109802,658.780396 
	C947.577148,634.538086 949.783447,609.854980 947.683655,585.008423 
	C943.715759,538.056335 926.289673,496.734650 893.865295,462.072906 
	C879.605103,446.828766 863.223450,434.461395 844.651733,425.005096 
	C841.870422,423.588928 840.914551,421.802521 840.918823,418.745789 
	C841.015076,350.417236 840.960876,282.088287 841.251770,213.760757 
	C841.265930,210.444641 843.313416,206.113663 845.860474,203.990341 
	C871.185791,182.878204 896.814087,162.129456 922.361816,141.284134 
	C926.195129,138.156342 929.827759,138.802734 933.751282,141.452393 
	C958.459717,158.138535 983.242126,174.715088 1008.009399,191.313995 
	C1012.436523,194.281006 1016.907043,197.183365 1021.657776,200.318390 
z"/>
<path fill="#9EA4AC" opacity="1.000000" stroke="none" 
	d="
M409.677429,459.694092 
	C406.218689,461.756622 402.843567,463.339569 399.986237,465.582336 
	C396.370850,468.420044 393.351532,468.019775 389.575562,465.781799 
	C336.588104,434.377045 283.539764,403.074829 230.482269,371.788361 
	C210.836700,360.203918 191.126480,348.729126 171.454147,337.190033 
	C170.027298,336.353119 168.669052,335.399292 166.544983,334.024902 
	C172.283157,330.540649 177.545013,327.257568 182.889130,324.114410 
	C227.946976,297.613251 273.004486,271.111481 318.094574,244.665268 
	C341.500488,230.937256 365.000366,217.369263 388.381683,203.599747 
	C391.671814,201.662170 394.322052,201.694199 397.602356,203.618423 
	C450.443573,234.614960 503.333038,265.529419 556.227600,296.434967 
	C573.476746,306.513397 590.773560,316.510162 608.042603,326.554504 
	C609.481079,327.391144 610.911499,328.251526 612.280945,329.194885 
	C616.365479,332.008667 616.332458,334.359802 611.981567,337.016296 
	C597.063354,346.124908 582.095337,355.151764 567.148926,364.214203 
	C514.762329,395.977692 462.376862,427.742981 409.677429,459.694092 
z"/>
<path fill="#9EA5AD" opacity="1.000000" stroke="none" 
	d="
M298.792542,710.204712 
	C326.033081,727.610046 352.933594,744.877991 379.950745,761.961426 
	C384.355988,764.746948 386.093872,768.010315 386.082764,773.341309 
	C385.911224,855.635620 385.968048,937.930359 385.860382,1020.224915 
	C385.857666,1022.297729 385.125244,1025.011963 383.706055,1026.197266 
	C382.867371,1026.897583 379.759949,1025.562378 378.093262,1024.489380 
	C346.180206,1003.944092 314.284454,983.371094 282.477753,962.661621 
	C243.691132,937.407593 205.021698,911.973511 166.203308,886.768616 
	C162.313354,884.242920 161.801575,881.017883 161.804398,876.997070 
	C161.850601,811.028076 161.835266,745.059082 161.835617,679.090088 
	C161.835709,662.597839 161.842300,646.105591 161.845795,629.613342 
	C161.846161,627.828552 161.845840,626.043823 161.845840,624.259033 
	C162.297607,623.879150 162.749359,623.499329 163.201126,623.119446 
	C208.297867,652.081604 253.394592,681.043762 298.792542,710.204712 
z"/>
<path fill="#9EA5AD" opacity="1.000000" stroke="none" 
	d="
M266.186493,410.795624 
	C304.711792,433.710083 342.917389,456.445648 381.153137,479.130432 
	C384.169128,480.919800 386.063782,482.718628 386.056641,486.825317 
	C385.911774,570.156860 385.951691,653.488647 385.953033,736.820435 
	C385.953033,738.320374 385.876831,739.822449 385.933777,741.319824 
	C386.090912,745.453735 384.180054,746.053040 381.029083,744.096008 
	C375.229767,740.494141 369.489929,736.795776 363.748474,733.101562 
	C309.539459,698.222717 255.339294,663.330200 201.126556,628.457153 
	C190.202118,621.429871 179.321579,614.327515 168.247421,607.542847 
	C163.612656,604.703308 161.727982,601.153748 161.736710,595.680908 
	C161.863770,516.015930 161.829651,436.350677 161.834045,356.685516 
	C161.834137,354.922943 161.834061,353.160370 161.834061,349.954590 
	C197.267700,370.610260 231.571075,390.607025 266.186493,410.795624 
z"/>
<path fill="#05396E" opacity="1.000000" stroke="none" 
	d="
M402.240845,483.017578 
	C410.364807,477.917603 418.422821,472.708954 426.623199,467.734955 
	C490.187653,429.179443 553.779602,390.669250 618.099731,352.186768 
	C619.236450,354.224915 619.984985,356.221100 619.986450,358.217834 
	C620.045410,437.953827 620.047485,517.689880 620.004272,597.425903 
	C620.002136,601.384216 619.530334,605.342285 619.277222,609.300476 
	C619.277283,609.300476 619.002441,609.009766 618.802979,609.106628 
	C618.275940,609.642334 617.948364,610.081177 617.620850,610.520020 
	C617.620850,610.520020 617.485474,610.584717 617.163818,610.532715 
	C616.618103,610.740601 616.394104,611.000488 616.170044,611.260376 
	C616.170044,611.260376 616.105896,611.115540 615.830078,611.131287 
	C615.168274,611.583740 614.782349,612.020447 614.396362,612.457153 
	C614.279968,612.335876 614.163635,612.214661 613.858887,612.168945 
	C612.891907,612.959656 612.113342,613.674927 611.334717,614.390137 
	C611.334717,614.390137 610.959595,614.150574 610.872925,614.244995 
	C610.544006,614.604309 610.301636,614.869324 610.059326,615.134277 
	C610.059326,615.134277 610.048523,615.042480 609.711853,615.041138 
	C608.437622,615.854004 607.500061,616.668152 606.562439,617.482239 
	C606.562439,617.482239 606.451538,617.516113 606.072632,617.423950 
	C603.876648,618.662598 602.059631,619.993530 600.242554,621.324402 
	C600.242554,621.324402 600.045654,621.063721 599.821899,621.129883 
	C599.255371,621.634155 598.912476,622.072327 598.569580,622.510498 
	C598.569580,622.510498 598.452759,622.538940 598.146362,622.497070 
	C597.609924,622.715820 597.379883,622.976501 597.149841,623.237183 
	C597.149841,623.237183 597.095093,623.104187 596.818909,623.124512 
	C596.174255,623.582520 595.805786,624.020142 595.437317,624.457764 
	C595.437317,624.457764 595.278259,624.345276 594.974854,624.312561 
	C592.867371,625.633484 591.063293,626.987122 589.259155,628.340759 
	C589.259155,628.340759 589.031738,628.055481 588.822144,628.129150 
	C588.275818,628.639709 587.939209,629.076660 587.602600,629.513611 
	C587.602600,629.513611 587.493103,629.515381 587.130127,629.478760 
	C585.971985,630.104065 585.176819,630.765991 584.381592,631.427856 
	C584.381592,631.427856 584.039062,631.085083 583.849121,631.168274 
	C582.863342,631.950256 582.067566,632.649048 581.271729,633.347839 
	C581.271729,633.347839 581.005920,633.035583 580.815674,633.126343 
	C580.298340,633.645386 579.971252,634.073669 579.644226,634.501953 
	C579.644226,634.501953 579.500061,634.608948 579.170410,634.560669 
	C578.636536,634.772339 578.432190,635.032349 578.227844,635.292297 
	C578.227844,635.292297 578.042908,635.044006 577.814941,635.114136 
	C577.200256,635.608887 576.813416,636.033569 576.426636,636.458252 
	C576.426636,636.458252 576.233459,636.303528 575.956665,636.288086 
	C574.880920,636.967285 574.081970,637.661926 573.283081,638.356628 
	C573.283081,638.356628 573.083618,638.139465 572.922607,638.228271 
	C572.526733,638.588074 572.291931,638.859070 572.057129,639.130127 
	C572.057129,639.130127 572.043884,639.039062 571.759155,639.060730 
	C571.051880,639.493469 570.629333,639.904602 570.206848,640.315674 
	C570.206848,640.315674 570.108093,640.132874 569.849365,640.158081 
	C569.203735,640.608521 568.816772,641.033752 568.429810,641.458984 
	C568.429810,641.458984 568.256470,641.323425 567.961853,641.301514 
	C565.868286,642.633911 564.069397,643.988220 562.270447,645.342468 
	C562.270447,645.342468 562.007446,645.034119 561.813843,645.123657 
	C561.284729,645.644653 560.949280,646.076111 560.613892,646.507507 
	C560.613892,646.507507 560.481689,646.580627 560.163452,646.540344 
	C559.645996,646.768799 559.446716,647.037476 559.247375,647.306213 
	C559.247375,647.306213 559.026672,647.024292 558.812500,647.109253 
	C558.221558,647.620056 557.844727,648.045898 557.467896,648.471741 
	C557.467896,648.471741 557.379028,648.454712 557.030640,648.376587 
	C555.927490,649.008789 555.172607,649.719055 554.417786,650.429321 
	C554.417786,650.429321 554.247070,650.291992 553.958374,650.278931 
	C552.852844,650.947021 552.036011,651.628174 551.219177,652.309326 
	C551.219177,652.309326 551.082825,652.100464 550.836487,652.142944 
	C550.217285,652.617432 549.844421,653.049377 549.471619,653.481323 
	C549.471619,653.481323 549.386902,653.450623 549.107483,653.434814 
	C548.601807,653.690674 548.375610,653.962341 548.149353,654.234009 
	C548.149353,654.234009 548.093994,654.098755 547.818726,654.121582 
	C547.171692,654.579712 546.799866,655.015015 546.428101,655.450256 
	C546.428101,655.450256 546.243835,655.319641 545.960571,655.298950 
	C544.891663,655.978882 544.106079,656.679382 543.320496,657.379883 
	C543.320496,657.379883 542.995483,657.013000 542.810974,657.113892 
	C541.820435,657.910767 541.014404,658.606689 540.208374,659.302673 
	C540.208374,659.302673 540.092712,659.108215 539.838745,659.142883 
	C539.204651,659.608154 538.824585,660.038696 538.444458,660.469238 
	C538.444519,660.469299 538.286560,660.356140 537.986145,660.319824 
	C536.918518,660.994080 536.151306,661.704712 535.384033,662.415283 
	C535.384033,662.415283 535.076294,662.094360 534.866333,662.170410 
	C533.857727,662.943970 533.059082,663.641602 532.260498,664.339233 
	C532.260498,664.339233 532.074646,664.088745 531.818298,664.141357 
	C530.188904,665.277710 528.815857,666.361389 527.442871,667.445068 
	C527.442871,667.445068 527.327332,667.384094 527.003540,667.329834 
	C525.880554,667.970032 525.081299,668.664429 524.282043,669.358765 
	C524.282043,669.358765 524.047485,669.072449 523.812622,669.136108 
	C522.187439,670.275879 520.797058,671.351990 519.406738,672.428101 
	C519.406738,672.428101 519.170715,672.206787 518.916138,672.233032 
	C517.883545,672.968384 517.105408,673.677490 516.327332,674.386536 
	C516.215759,674.262573 516.104187,674.138672 515.811035,674.116943 
	C514.829468,674.919800 514.029541,675.620422 513.229614,676.321106 
	C513.229614,676.321106 513.127258,676.136108 512.839233,676.154785 
	C511.149170,677.248352 509.747162,678.323181 508.345154,679.397949 
	C508.241486,679.265320 508.137848,679.132629 507.820007,679.114990 
	C505.185211,680.950623 502.764618,682.671326 500.343994,684.392029 
	C500.243561,684.258606 500.143158,684.125183 499.837341,684.107666 
	C498.839874,684.928955 498.047791,685.634338 497.255737,686.339722 
	C497.255737,686.339722 497.097687,686.104248 496.828857,686.145020 
	C494.147736,687.918823 491.735413,689.651855 489.323120,691.384888 
	C489.323120,691.384888 488.980499,691.045959 488.788300,691.131226 
	C486.177246,692.942566 483.758362,694.668579 481.339478,696.394653 
	C481.224701,696.270203 481.109894,696.145813 480.800232,696.123535 
	C478.191833,697.953003 475.778351,699.680420 473.364899,701.407837 
	C473.364899,701.407837 473.069397,701.007568 472.856689,701.120361 
	C471.855469,701.942139 471.066956,702.651062 470.278442,703.359985 
	C470.278442,703.359985 470.074524,703.078369 469.824738,703.136353 
	C467.172363,704.933105 464.769775,706.671875 462.367188,708.410706 
	C462.254089,708.277954 462.140991,708.145264 461.838837,708.123413 
	C460.854431,708.940430 460.059082,709.646545 459.263733,710.352661 
	C459.263763,710.352722 459.112946,710.123535 458.837280,710.156738 
	C454.493652,712.929382 450.425690,715.668823 446.357758,718.408264 
	C446.255829,718.268372 446.153900,718.128479 445.848511,718.106384 
	C444.845947,718.929321 444.046875,719.634521 443.247772,720.339661 
	C443.247772,720.339661 443.124695,720.125488 442.843842,720.151611 
	C441.185822,721.268616 439.808685,722.359436 438.431519,723.450256 
	C438.431519,723.450256 438.242096,723.242371 437.945679,723.251831 
	C434.220184,725.644348 430.791107,728.027344 427.362030,730.410278 
	C427.259674,730.269165 427.157318,730.128052 426.837494,730.110962 
	C424.402130,731.823120 422.184235,733.411316 419.966370,734.999512 
	C419.966370,734.999512 419.858612,735.223999 419.339233,735.187744 
	C413.556458,738.097046 408.293121,741.042480 403.017029,743.520264 
	C402.994843,658.311157 402.990265,573.569885 402.945251,488.828613 
	C402.944214,486.891449 402.485870,484.954590 402.240845,483.017578 
z"/>
<path fill="#025DAB" opacity="1.000000" stroke="none" 
	d="
M479.018738,716.942200 
	C479.018768,716.942200 479.141998,716.727661 479.646973,716.779663 
	C480.994263,716.095093 481.836639,715.358582 482.679016,714.622070 
	C482.679016,714.622070 482.965027,715.003845 483.192535,714.895630 
	C485.622833,713.188782 487.825592,711.590210 490.028381,709.991577 
	C490.028381,709.991577 490.159943,709.766724 490.680267,709.803162 
	C493.643738,708.073303 496.086914,706.307007 498.530060,704.540710 
	C498.530060,704.540710 498.616882,704.557434 498.955170,704.637207 
	C499.871674,704.149048 500.449921,703.581116 501.028168,703.013184 
	C501.028168,703.013184 501.162964,702.781616 501.680847,702.812744 
	C503.452423,701.878662 504.706146,700.913391 505.959839,699.948120 
	C505.959839,699.948120 506.000000,700.000000 506.351501,699.995239 
	C510.128967,697.649658 513.554932,695.308838 516.980896,692.967957 
	C516.980896,692.967957 516.996765,693.002747 517.344055,693.005066 
	C518.701843,692.221497 519.712280,691.435547 520.722778,690.649658 
	C520.722778,690.649658 521.001282,690.964905 521.221802,690.887695 
	C523.829102,689.068726 526.215942,687.327026 528.602722,685.585266 
	C528.602722,685.585266 528.734009,685.703613 529.058350,685.731079 
	C530.201111,685.016235 531.019409,684.273926 531.837769,683.531677 
	C531.949341,683.258240 532.146912,683.080078 533.010437,682.988281 
	C534.557556,682.159851 535.524719,681.340332 536.491821,680.520813 
	C536.491821,680.520813 536.591248,680.515442 536.958008,680.612854 
	C538.072388,679.993469 538.820007,679.276611 539.567566,678.559753 
	C539.567566,678.559753 539.653748,678.599548 540.009949,678.670410 
	C541.737488,677.670166 543.108887,676.599121 544.480225,675.528076 
	C544.480225,675.528076 544.583984,675.509766 544.954468,675.611450 
	C546.106506,675.013977 546.888062,674.314880 547.669617,673.615784 
	C547.669617,673.615784 547.929199,674.012756 548.171509,673.899414 
	C550.794678,672.045837 553.175598,670.305664 555.556458,668.565491 
	C555.556458,668.565491 555.640808,668.573975 555.989746,668.656128 
	C557.127197,668.040100 557.915710,667.341858 558.704224,666.643616 
	C558.704224,666.643616 559.033081,666.803284 559.139343,666.747803 
	C559.479126,666.426270 559.712646,666.160278 559.946167,665.894287 
	C559.946167,665.894287 559.977661,665.989075 560.262573,665.960693 
	C560.963623,665.521729 561.379639,665.111084 561.795715,664.700500 
	C561.795715,664.700500 561.956543,664.928833 562.194397,664.876709 
	C562.796387,664.389832 563.160461,663.954956 563.524536,663.520081 
	C563.524536,663.520081 563.615967,663.530884 563.968140,663.623291 
	C565.108582,663.024475 565.896912,662.333374 566.685181,661.642212 
	C566.685181,661.642212 566.881042,661.892578 567.145630,661.839111 
	C568.215759,661.106079 569.021240,660.426514 569.826660,659.746948 
	C569.826660,659.746948 569.966064,659.945068 570.214355,659.897949 
	C570.824646,659.412537 571.186584,658.974243 571.548523,658.535950 
	C571.548523,658.535950 571.635864,658.549316 571.981873,658.638184 
	C573.116089,658.029480 573.904358,657.331970 574.692566,656.634460 
	C574.692566,656.634460 575.000000,657.000000 575.195984,656.898071 
	C576.171265,656.088562 576.950562,655.381042 577.729797,654.673462 
	C577.729797,654.673462 577.937866,655.007080 578.175171,654.902527 
	C578.763306,654.366699 579.114136,653.935425 579.465027,653.504150 
	C579.465027,653.504150 579.572815,653.484741 579.946045,653.587830 
	C581.048828,652.972961 581.778320,652.254944 582.507812,651.536987 
	C582.507812,651.536987 582.602661,651.532166 582.961670,651.622437 
	C584.094543,651.012207 584.868347,650.311829 585.642212,649.611389 
	C585.642212,649.611389 585.904053,649.892883 586.153381,649.829468 
	C587.732788,648.684143 589.062866,647.602234 590.392944,646.520386 
	C590.392944,646.520386 590.521545,646.439148 590.918335,646.548462 
	C592.051086,645.957214 592.786987,645.256592 593.522949,644.556030 
	C593.522949,644.556030 593.616028,644.542053 593.974976,644.626221 
	C595.114868,644.017273 595.895813,643.324219 596.676758,642.631104 
	C596.676819,642.631165 596.974670,642.977600 597.182373,642.881958 
	C598.163147,642.077026 598.936157,641.367737 599.709167,640.658386 
	C599.709167,640.658386 599.964783,640.973877 600.177002,640.874390 
	C600.714600,640.347290 601.039978,639.919678 601.365295,639.492004 
	C601.365295,639.492004 601.504639,639.404541 601.904663,639.522888 
	C603.075684,638.957886 603.846619,638.274536 604.617554,637.591187 
	C604.617554,637.591187 604.798523,637.762207 605.078247,637.761719 
	C606.163879,637.075012 606.969727,636.388733 607.775574,635.702515 
	C607.775574,635.702515 608.015564,635.956665 608.223755,635.887512 
	C608.782104,635.382202 609.132202,634.945984 609.482300,634.509827 
	C609.482300,634.509827 609.585571,634.496826 609.951782,634.597656 
	C611.075134,633.992371 611.832153,633.286255 612.589233,632.580200 
	C612.589233,632.580200 612.722046,632.681152 613.057983,632.708496 
	C615.331665,631.970337 617.269287,631.204895 620.053040,630.105164 
	C620.053040,632.407959 620.053101,634.306702 620.053040,636.205505 
	C620.049194,713.569702 620.064575,790.933899 619.969482,868.298035 
	C619.965759,871.325562 618.904907,874.351807 618.336670,877.378662 
	C618.336670,877.378662 618.015076,877.090576 617.813232,877.160156 
	C616.869690,877.956787 616.128052,878.683960 615.386414,879.411072 
	C615.386414,879.411072 615.155029,879.196533 614.900757,879.222290 
	C613.869080,879.951660 613.091675,880.655212 612.314270,881.358765 
	C612.314270,881.358765 612.004883,881.007324 611.796814,881.117432 
	C609.815063,882.596008 608.041382,883.964600 606.267761,885.333191 
	C606.267761,885.333191 606.033020,885.009827 605.807556,885.100220 
	C604.821350,885.911743 604.060608,886.632996 603.299927,887.354248 
	C603.299927,887.354248 603.004883,887.000000 602.805725,887.106384 
	C601.815247,887.910645 601.023926,888.608521 600.232666,889.306396 
	C600.232666,889.306396 600.054382,889.058105 599.793213,889.120300 
	C598.190918,890.278320 596.849792,891.374146 595.508667,892.469971 
	C595.508667,892.469971 595.412903,892.468689 595.123901,892.452393 
	C594.628296,892.715820 594.421692,892.995605 594.215088,893.275452 
	C594.215149,893.275452 594.022278,893.021423 593.795898,893.098755 
	C593.210266,893.608948 592.851013,894.041748 592.491821,894.474609 
	C592.491821,894.474609 592.398132,894.468933 592.113770,894.455078 
	C591.631958,894.723450 591.434570,895.005615 591.237183,895.287842 
	C591.237183,895.287842 591.051575,895.001953 590.806641,895.084534 
	C589.776245,895.872559 588.990784,896.577942 588.205322,897.283325 
	C588.205322,897.283386 588.080383,897.075500 587.799316,897.121704 
	C586.147400,898.253113 584.776489,899.338196 583.405518,900.423340 
	C583.405579,900.423340 583.229553,900.280029 582.938660,900.267944 
	C581.909180,900.981506 581.170532,901.707153 580.432007,902.432739 
	C580.432007,902.432800 580.338928,902.404846 579.999146,902.339294 
	C578.919312,902.995972 578.179321,903.718201 577.439331,904.440369 
	C577.439331,904.440369 577.353943,904.421814 577.008179,904.351013 
	C575.930664,905.003601 575.198914,905.727051 574.467163,906.450439 
	C574.467102,906.450439 574.378174,906.446045 574.025635,906.367798 
	C572.915771,907.001709 572.158508,907.713928 571.401245,908.426147 
	C571.401245,908.426147 571.179321,908.222412 570.915771,908.240906 
	C569.892944,908.975830 569.133728,909.692261 568.374512,910.408691 
	C568.374512,910.408691 568.131409,910.135010 567.882690,910.186890 
	C566.875488,910.959656 566.117004,911.680664 565.358582,912.401672 
	C565.358582,912.401672 565.063477,912.054016 564.845215,912.142883 
	C563.894348,912.965637 563.161682,913.699524 562.429016,914.433411 
	C562.429016,914.433411 562.319946,914.382263 561.989624,914.327271 
	C560.911133,914.991699 560.162964,915.711182 559.414795,916.430664 
	C559.414795,916.430664 559.255554,916.296204 558.950195,916.279419 
	C556.880005,917.640320 555.115234,919.018005 553.350464,920.395752 
	C553.350464,920.395752 553.073853,920.033569 552.850464,920.129456 
	C551.855164,920.939880 551.083252,921.654419 550.311401,922.369019 
	C550.311401,922.369019 550.004883,921.997559 549.805786,922.101807 
	C548.837402,922.924561 548.067993,923.643066 547.298706,924.361572 
	C547.298706,924.361633 547.009216,924.004089 546.806763,924.103394 
	C545.835815,924.919556 545.067322,925.636292 544.298828,926.353149 
	C544.298889,926.353149 544.002441,926.000000 543.797607,926.099487 
	C542.833496,926.923706 542.074097,927.648376 541.314697,928.373047 
	C541.314758,928.373108 541.018433,928.005432 540.796631,928.107422 
	C534.009216,932.319214 527.403687,936.367371 520.909180,940.586609 
	C519.479858,941.515137 518.444946,943.050781 517.228333,944.306824 
	C517.228333,944.306824 517.089661,944.071838 516.808960,944.118591 
	C510.361969,948.460999 504.195679,952.756653 498.029358,957.052246 
	C498.029388,957.052307 498.008972,956.995605 497.673157,956.999390 
	C496.567230,957.683960 495.797150,958.364746 495.027069,959.045593 
	C495.027069,959.045593 495.004944,958.996765 494.657532,958.998474 
	C493.366974,959.822815 492.423828,960.645386 491.480682,961.468018 
	C491.480682,961.468018 491.391174,961.453125 491.052490,961.374146 
	C490.144135,961.866272 489.574432,962.437256 489.004700,963.008240 
	C489.004700,963.008240 489.000000,963.000000 488.651245,962.993408 
	C487.537018,963.661987 486.771545,964.337280 486.006104,965.012512 
	C486.006104,965.012512 486.000000,965.000000 485.652039,964.993408 
	C484.541229,965.668335 483.778381,966.349792 483.015564,967.031250 
	C483.015594,967.031250 483.002960,966.996704 482.661377,966.998047 
	C481.555298,967.680969 480.790833,968.362610 480.026367,969.044312 
	C480.026367,969.044312 480.004700,968.996765 479.666290,969.000366 
	C478.565216,969.690002 477.802582,970.376038 477.039917,971.062012 
	C477.039917,971.062012 477.007324,970.997498 476.674683,971.003540 
	C475.572968,971.693176 474.803925,972.376770 474.034882,973.060303 
	C474.034882,973.060303 474.009766,972.997131 473.677338,973.003601 
	C472.569397,973.684448 471.793884,974.358887 471.018372,975.033264 
	C471.018372,975.033264 471.003479,974.996765 470.702209,975.015015 
	C469.986572,975.442505 469.572235,975.851624 469.157837,976.260742 
	C469.157837,976.260742 469.135071,976.155945 468.914551,976.193970 
	C468.465759,976.496826 468.237457,976.761597 468.009155,977.026306 
	C468.009155,977.026306 468.001465,976.997009 467.697571,977.015015 
	C466.990692,977.450623 466.587708,977.868225 466.184692,978.285767 
	C466.184692,978.285767 466.145905,978.172607 465.927307,978.212280 
	C465.475708,978.517151 465.242676,978.782471 465.009644,979.047729 
	C444.985779,992.464905 424.968262,1005.891541 404.911224,1019.258972 
	C404.221069,1019.718872 403.135010,1019.584656 402.433594,1019.062012 
	C402.754517,1015.585632 402.980011,1012.774658 402.980927,1009.963562 
	C403.007904,928.953064 403.012390,847.942627 403.293030,766.753662 
	C405.582794,764.578857 407.600006,762.582520 409.617188,760.586182 
	C409.617188,760.586182 409.860870,760.869446 410.126160,760.810791 
	C418.233856,756.038940 426.154266,751.449036 433.885315,746.559814 
	C437.636871,744.187317 441.033936,741.254272 444.591492,738.575073 
	C444.591461,738.575012 444.717621,738.690674 445.052704,738.720215 
	C451.265717,734.806885 457.143616,730.863953 463.021545,726.921082 
	C463.021545,726.921082 463.141327,726.713989 463.642609,726.770874 
	C464.986084,726.090454 465.828278,725.353149 466.670471,724.615845 
	C466.670471,724.615845 466.951233,725.002258 467.187805,724.892212 
	C471.289185,722.168762 475.153961,719.555481 479.018738,716.942200 
z"/>
<path fill="#025CAA" opacity="1.000000" stroke="none" 
	d="
M438.107056,175.100296 
	C490.285583,145.192520 542.166138,115.502274 593.964355,85.668808 
	C598.155701,83.254761 601.418701,82.936058 605.833130,85.495682 
	C675.685486,125.997887 745.646057,166.313614 815.580933,206.673401 
	C816.012695,206.922577 816.433105,207.191422 816.859436,207.450027 
	C822.531250,210.890442 822.547302,212.750000 816.967590,216.027252 
	C806.925903,221.925323 796.883057,227.821594 786.859375,233.750244 
	C737.560852,262.908600 688.255981,292.056396 639.004089,321.293396 
	C635.959351,323.100800 633.606262,323.397919 630.357117,321.497925 
	C558.366150,279.400085 486.304993,237.422119 414.259674,195.417068 
	C412.724121,194.521790 411.218140,193.575745 408.677979,192.034088 
	C418.957306,186.118179 428.372620,180.699524 438.107056,175.100296 
z"/>
<path fill="#025EAC" opacity="1.000000" stroke="none" 
	d="
M638.820312,339.911652 
	C665.843140,323.813141 692.853577,307.693695 719.891968,291.621307 
	C754.221130,271.215057 788.572021,250.845230 822.920044,230.470718 
	C823.998718,229.830872 825.149658,229.312836 826.769165,228.479630 
	C826.902771,230.308929 827.074768,231.561966 827.074280,232.814941 
	C827.043762,312.595612 826.983582,392.376282 827.001404,472.156952 
	C827.002319,476.191650 825.779724,478.900970 822.185730,481.164276 
	C762.740845,518.600281 703.384460,556.176758 643.951599,593.632019 
	C642.067444,594.819458 639.580139,595.049805 637.527039,595.044312 
	C637.790344,592.713196 637.996704,591.063965 637.997009,589.414795 
	C638.010742,508.526642 638.008057,427.638489 637.996338,346.750336 
	C637.996033,344.756195 637.873230,342.762085 637.807556,340.767944 
	C637.807556,340.767944 637.758606,340.853821 637.989136,340.861328 
	C638.419861,340.549805 638.620117,340.230743 638.820312,339.911652 
z"/>
<path fill="#08396D" opacity="1.000000" stroke="none" 
	d="
M853.187988,445.943909 
	C873.895325,458.880981 890.104126,476.295471 903.277344,496.643890 
	C920.710205,523.572205 930.992859,553.071289 933.180115,585.069397 
	C937.812744,652.843262 915.948303,710.406555 865.432434,756.382935 
	C858.219482,762.947693 849.735474,768.115906 841.168701,773.999756 
	C840.047363,774.479065 839.596924,774.889099 839.146484,775.299072 
	C839.146484,775.299072 839.131287,775.170959 838.846802,775.158142 
	C838.144653,775.579834 837.727051,776.014282 837.309387,776.448792 
	C837.309387,776.448792 837.239075,776.317505 837.021118,776.321350 
	C836.550476,776.593384 836.297913,776.861511 836.045288,777.129761 
	C836.045349,777.129761 836.044373,777.045898 835.698120,777.040588 
	C832.317932,778.816895 829.283997,780.598511 826.250000,782.380127 
	C826.250000,782.380066 826.132080,782.222656 825.873962,782.200806 
	C825.142822,782.575500 824.669861,782.972107 824.196777,783.368652 
	C824.196777,783.368652 824.160339,783.237122 823.865173,783.196655 
	C822.408997,783.841736 821.247986,784.527344 820.086975,785.212952 
	C820.086975,785.212952 820.086426,785.107544 819.796631,785.107788 
	C818.984375,785.469360 818.461914,785.830627 817.939514,786.191895 
	C817.939514,786.191895 817.835449,786.256775 817.344360,786.180664 
	C809.545044,788.459229 802.236755,790.814026 793.993164,793.470154 
	C793.993164,786.273315 794.136536,780.020935 793.936035,773.779541 
	C793.826721,770.375366 795.450256,768.652222 798.297546,767.349060 
	C804.606812,764.461548 811.069885,761.801514 817.034790,758.305725 
	C821.565002,755.650818 825.423401,751.849670 829.580750,748.558533 
	C829.580750,748.558533 829.910095,748.820129 830.113586,748.787354 
	C831.772156,747.372559 833.227295,745.990601 834.682373,744.608582 
	C834.682373,744.608582 834.903748,744.933167 835.140930,744.866150 
	C836.382263,743.697998 837.386475,742.596924 838.390625,741.495789 
	C838.390625,741.495789 838.503967,741.477844 838.813477,741.502563 
	C839.241394,741.206421 839.359863,740.885559 839.478271,740.564697 
	C839.478271,740.564697 839.565918,740.591003 839.856323,740.582275 
	C840.299500,740.247803 840.452209,739.921997 840.604980,739.596191 
	C840.604980,739.596191 841.025146,739.858948 841.105713,739.736206 
	C841.359497,739.287231 841.532715,738.961060 841.705933,738.634949 
	C841.705933,738.634949 841.758423,738.760925 841.989624,738.705994 
	C842.404541,738.326111 842.588318,738.001099 842.772095,737.676147 
	C842.772095,737.676147 842.815186,737.801270 843.118896,737.821045 
	C846.511597,734.452209 849.600586,731.063721 852.689575,727.675232 
	C852.689575,727.675232 852.819885,727.820374 853.021973,727.730042 
	C853.363708,727.299377 853.503418,726.958984 853.643066,726.618591 
	C853.643066,726.618591 853.857300,726.862915 854.025085,726.737183 
	C854.323181,726.271118 854.453491,725.930847 854.583862,725.590576 
	C854.715881,725.724854 854.847839,725.859192 855.069702,725.792542 
	C855.249268,725.253601 855.338928,724.915771 855.428589,724.577881 
	C855.428589,724.577881 855.527344,724.547241 855.818115,724.548340 
	C856.180542,724.234436 856.252197,723.919495 856.323853,723.604492 
	C856.323792,723.604492 856.423523,723.502258 856.810547,723.524841 
	C857.714722,722.604431 858.231750,721.661499 858.748779,720.718506 
	C858.748779,720.718506 858.803223,720.825867 859.028503,720.739624 
	C859.371338,720.304871 859.488953,719.956299 859.606506,719.607727 
	C859.606506,719.607727 859.927429,719.969421 860.048523,719.782776 
	C860.254944,719.255798 860.340210,718.915466 860.425476,718.575134 
	C860.425476,718.575134 860.521790,718.560425 860.877625,718.572449 
	C861.957886,717.253357 862.682312,715.922302 863.406738,714.591187 
	C863.406738,714.591187 863.504517,714.575928 863.868530,714.576782 
	C864.668457,713.591614 865.104492,712.605469 865.540405,711.619324 
	C865.699951,711.716980 865.859497,711.814636 866.109253,711.751099 
	C866.435425,711.015076 866.671509,710.440369 866.907532,709.865662 
	C866.907532,709.865662 866.938416,709.944763 867.153809,709.828125 
	C867.499146,709.371277 867.629028,709.031128 867.758911,708.690918 
	C867.758911,708.690918 867.805298,708.821411 868.020386,708.731934 
	C868.295288,708.293091 868.355164,707.943604 868.415039,707.594177 
	C868.415039,707.594177 868.511047,707.581421 868.832947,707.554199 
	C869.346985,706.925781 869.539124,706.324463 869.731262,705.723206 
	C869.731262,705.723206 869.800171,705.837402 870.009033,705.741028 
	C870.240906,705.308899 870.263977,704.973083 870.286987,704.637329 
	C870.287048,704.637329 870.370361,704.497803 870.746094,704.483154 
	C871.295654,703.872253 871.469482,703.275940 871.643311,702.679565 
	C871.643250,702.679565 871.824036,702.885010 872.085083,702.765503 
	C872.682312,701.638489 873.018555,700.630981 873.354797,699.623474 
	C873.354797,699.623474 873.443604,699.534729 873.817810,699.551636 
	C875.604797,696.581177 877.017517,693.593811 878.430298,690.606506 
	C878.430359,690.606506 878.688965,690.676392 878.929382,690.602112 
	C879.281799,689.900635 879.393799,689.273438 879.505798,688.646240 
	C879.505798,688.646240 879.771240,688.648315 879.992554,688.615234 
	C880.626343,688.077576 881.138000,687.625488 881.436829,687.060730 
	C889.557922,671.713867 894.847900,655.379150 897.856934,638.337585 
	C899.288696,630.228882 900.437744,622.014038 900.900635,613.801331 
	C902.180481,591.094849 898.825562,568.917236 891.799622,547.336731 
	C890.323975,542.804199 887.635986,538.666321 885.506592,534.346619 
	C885.506592,534.346619 885.494629,534.165955 885.656921,533.861572 
	C884.179321,530.388672 882.539429,527.220276 880.899536,524.051819 
	C880.899536,524.051819 880.985168,524.029175 880.961670,523.747681 
	C880.584229,522.989319 880.230225,522.512329 879.876282,522.035400 
	C879.876282,522.035400 879.957092,522.043457 879.944397,521.760925 
	C879.579163,520.997375 879.226624,520.516357 878.874146,520.035278 
	C878.874146,520.035278 878.955078,520.045776 878.962646,519.712830 
	C878.215698,518.306091 877.461121,517.232361 876.706543,516.158630 
	C876.706543,516.158630 876.825623,516.138550 876.840515,515.850647 
	C876.425293,515.139099 875.995178,514.715515 875.565063,514.291870 
	C875.565063,514.291870 875.762451,514.138794 875.772949,513.891479 
	C875.336121,513.283630 874.888916,512.923157 874.441650,512.562622 
	C874.441650,512.562622 874.457825,512.457520 874.574158,512.086365 
	C873.969360,510.949432 873.248169,510.183655 872.526978,509.417908 
	C872.668030,509.326416 872.809021,509.234924 872.852905,508.911652 
	C872.037720,507.886658 871.319519,507.093445 870.601318,506.300232 
	C870.601318,506.300232 870.826477,506.128143 870.815491,505.872528 
	C870.047546,504.882446 869.290588,504.147980 868.533630,503.413513 
	C868.533630,503.413513 868.548645,503.063568 868.586548,502.943726 
	C868.329773,502.597351 868.035095,502.370819 867.740417,502.144287 
	C867.740417,502.144318 867.850830,502.128296 867.853149,501.835999 
	C867.390564,501.225677 866.925598,500.907684 866.460693,500.589691 
	C866.460693,500.589691 866.471375,500.482635 866.507202,500.173676 
	C866.237427,499.676575 865.931885,499.488464 865.626282,499.300323 
	C865.626282,499.300323 865.753357,499.233032 865.702271,499.000916 
	C865.334106,498.543640 865.017029,498.318512 864.700012,498.093414 
	C864.369934,498.059113 864.144836,497.887238 863.976196,497.023438 
	C863.467468,496.105896 863.007324,495.742706 862.547119,495.379517 
	C862.547119,495.379517 862.780945,495.110565 862.694702,494.966614 
	C862.287842,494.644318 861.967224,494.465942 861.646606,494.287598 
	C861.646606,494.287598 861.884399,494.133667 861.839172,493.879425 
	C861.150757,493.110138 860.507568,492.595093 859.864380,492.080017 
	C859.864380,492.080048 859.947754,492.066620 859.862732,491.854980 
	C859.504089,491.432312 859.230469,491.221252 858.956848,491.010193 
	C858.956848,491.010193 859.003723,491.000763 858.966187,490.699097 
	C858.471924,490.057678 858.015137,489.717926 857.558350,489.378143 
	C857.558350,489.378143 857.787415,489.092621 857.699585,488.955627 
	C857.292114,488.636871 856.972534,488.455139 856.652954,488.273407 
	C856.652954,488.273407 856.776245,488.222412 856.717163,487.995361 
	C856.338623,487.580688 856.019165,487.393036 855.699768,487.205383 
	C855.699768,487.205383 855.833923,487.168671 855.757690,486.951965 
	C855.360046,486.551544 855.038757,486.367889 854.717407,486.184204 
	C854.717407,486.184204 854.853027,486.152496 854.771118,485.938171 
	C854.366394,485.542450 854.043701,485.361084 853.720947,485.179688 
	C853.720947,485.179688 853.856140,485.147369 853.775269,484.934113 
	C853.375366,484.533783 853.056335,484.346710 852.737244,484.159668 
	C852.737244,484.159668 852.872559,484.132721 852.787598,483.921326 
	C852.384705,483.522308 852.066895,483.334656 851.749023,483.147003 
	C851.749023,483.147003 851.859009,483.126068 851.866150,482.817993 
	C849.480469,480.440979 847.087646,478.372009 844.694763,476.303040 
	C844.694763,476.303040 844.866760,476.117401 844.756592,475.940796 
	C844.308350,475.630249 843.970337,475.496338 843.632324,475.362396 
	C843.632324,475.362396 843.956299,475.067535 843.783447,474.934753 
	C843.269836,474.697418 842.929138,474.592865 842.588440,474.488312 
	C842.588440,474.488312 842.602417,474.403320 842.606445,474.114380 
	C842.325867,473.592377 842.041199,473.359314 841.756531,473.126221 
	C841.756531,473.126190 841.846558,473.078186 841.904724,472.760773 
	C841.968262,471.948242 841.973633,471.453094 841.968994,470.492035 
	C841.942810,460.725037 841.926758,451.423981 842.130737,441.827850 
	C843.010193,441.208557 843.669495,440.884369 844.328796,440.560181 
	C844.328796,440.560181 844.000610,440.759430 844.206360,440.987488 
	C845.036621,441.375641 845.661133,441.535706 846.285645,441.695770 
	C846.285645,441.695770 846.150513,441.777405 846.239746,442.071442 
	C847.581360,442.889923 848.833862,443.414337 850.086304,443.938782 
	C850.086304,443.938782 850.023010,443.986023 850.156677,444.261597 
	C851.256226,445.006104 852.222107,445.475006 853.187988,445.943909 
z"/>
<path fill="#2C3B6C" opacity="1.000000" stroke="none" 
	d="
M619.636353,609.175049 
	C619.530334,605.342285 620.002136,601.384216 620.004272,597.425903 
	C620.047485,517.689880 620.045410,437.953827 619.986450,358.217834 
	C619.984985,356.221100 619.236450,354.224915 618.443298,352.132660 
	C622.079834,348.450562 621.858948,351.793274 621.863403,354.439758 
	C621.897827,375.076324 621.898254,395.712982 621.896545,416.349609 
	C621.891418,478.093323 621.902466,539.837097 621.792847,601.580627 
	C621.788391,604.071350 620.621033,606.559937 619.636353,609.175049 
z"/>
<path fill="#2A62B0" opacity="1.000000" stroke="none" 
	d="
M618.694946,877.290771 
	C618.904907,874.351807 619.965759,871.325562 619.969482,868.298035 
	C620.064575,790.933899 620.049194,713.569702 620.053040,636.205505 
	C620.053101,634.306702 620.053040,632.407959 620.053040,630.105164 
	C617.269287,631.204895 615.331665,631.970337 613.022705,632.632935 
	C615.356567,630.716431 618.061646,628.902832 621.576782,626.546143 
	C621.736084,629.091919 621.918579,630.648499 621.918640,632.205078 
	C621.921143,711.396912 621.933777,790.588745 621.777161,869.780273 
	C621.772217,872.256287 620.001038,874.728760 618.694946,877.290771 
z"/>
<path fill="#1E2F63" opacity="1.000000" stroke="none" 
	d="
M885.599731,534.714355 
	C887.635986,538.666321 890.323975,542.804199 891.799622,547.336731 
	C898.825562,568.917236 902.180481,591.094849 900.900635,613.801331 
	C900.437744,622.014038 899.288696,630.228882 897.856934,638.337585 
	C894.847900,655.379150 889.557922,671.713867 881.436829,687.060730 
	C881.138000,687.625488 880.626343,688.077576 879.855103,688.606384 
	C887.739258,670.377319 894.322876,651.638916 897.220276,631.689026 
	C902.052124,598.419312 898.092834,566.263306 885.599731,534.714355 
z"/>
<path fill="#000A43" opacity="1.000000" stroke="none" 
	d="
M402.055420,483.454163 
	C402.485870,484.954590 402.944214,486.891449 402.945251,488.828613 
	C402.990265,573.569885 402.994843,658.311157 402.773773,743.519287 
	C402.543274,743.986084 402.057465,743.986938 402.057465,743.986938 
	C401.972748,737.512390 401.814148,731.037903 401.814545,724.563354 
	C401.819580,644.339111 401.847778,564.114929 402.055420,483.454163 
z"/>
<path fill="#093995" opacity="1.000000" stroke="none" 
	d="
M637.468628,341.052063 
	C637.873230,342.762085 637.996033,344.756195 637.996338,346.750336 
	C638.008057,427.638489 638.010742,508.526642 637.997009,589.414795 
	C637.996704,591.063965 637.790344,592.713196 637.412598,594.679932 
	C637.013184,593.352722 636.766418,591.707947 636.765991,590.063110 
	C636.746887,509.642853 636.745605,429.222595 636.764709,348.802338 
	C636.765320,346.313568 637.002686,343.824890 637.468628,341.052063 
z"/>
<path fill="#093995" opacity="1.000000" stroke="none" 
	d="
M403.020477,766.932129 
	C403.012390,847.942627 403.007904,928.953064 402.980927,1009.963562 
	C402.980011,1012.774658 402.754517,1015.585632 402.357422,1018.710205 
	C401.965668,1011.714600 401.751923,1004.405396 401.749878,997.096252 
	C401.728668,921.705322 401.741272,846.314392 401.748810,770.923462 
	C401.748932,769.592957 401.802765,768.262390 402.164703,766.569946 
	C402.752686,766.391174 402.926910,766.632568 403.020477,766.932129 
z"/>
<path fill="#1E2F63" opacity="1.000000" stroke="none" 
	d="
M829.260681,748.682495 
	C825.423401,751.849670 821.565002,755.650818 817.034790,758.305725 
	C811.069885,761.801514 804.606812,764.461548 798.297546,767.349060 
	C795.450256,768.652222 793.826721,770.375366 793.936035,773.779541 
	C794.136536,780.020935 793.993164,786.273315 793.993164,793.470154 
	C802.236755,790.814026 809.545044,788.459229 817.284668,786.166748 
	C809.588562,789.332458 801.461182,792.435913 792.027588,796.038147 
	C792.027588,791.750183 792.029785,788.726501 792.027100,785.702881 
	C792.023438,781.550659 791.981079,777.398010 792.021545,773.246277 
	C792.053589,769.951599 793.612793,768.029175 796.700928,766.426086 
	C807.567810,760.784668 818.211914,754.714172 829.260681,748.682495 
z"/>
<path fill="#2A62B0" opacity="1.000000" stroke="none" 
	d="
M444.251740,738.650940 
	C441.033936,741.254272 437.636871,744.187317 433.885315,746.559814 
	C426.154266,751.449036 418.233856,756.038940 410.022827,760.655090 
	C421.073517,753.281006 432.492737,746.003906 444.251740,738.650940 
z"/>
<path fill="#2A62B0" opacity="1.000000" stroke="none" 
	d="
M517.570984,944.227478 
	C518.444946,943.050781 519.479858,941.515137 520.909180,940.586609 
	C527.403687,936.367371 534.009216,932.319214 540.943115,928.290771 
	C533.512146,933.630798 525.712891,938.889465 517.570984,944.227478 
z"/>
<path fill="#2A62B0" opacity="1.000000" stroke="none" 
	d="
M498.375031,956.988159 
	C504.195679,952.756653 510.361969,948.460999 516.898132,944.221863 
	C511.085510,948.493591 504.903107,952.708801 498.375031,956.988159 
z"/>
<path fill="#2A62B0" opacity="1.000000" stroke="none" 
	d="
M462.669922,726.984253 
	C457.143616,730.863953 451.265717,734.806885 445.022278,738.640259 
	C450.543945,734.702942 456.431122,730.875122 462.669922,726.984253 
z"/>
<path fill="#2C3B6C" opacity="1.000000" stroke="none" 
	d="
M402.066406,744.291382 
	C402.057465,743.986938 402.543274,743.986084 402.786499,743.987061 
	C408.293121,741.042480 413.556458,738.097046 419.214752,735.191284 
	C414.640350,738.460205 409.700134,741.736450 404.662201,744.854858 
	C404.077454,745.216858 402.950806,744.703430 402.066406,744.291382 
z"/>
<path fill="#000A43" opacity="1.000000" stroke="none" 
	d="
M841.910645,442.122925 
	C841.926758,451.423981 841.942810,460.725037 841.731995,470.513306 
	C841.505066,471.000488 841.028442,470.995697 841.028442,470.995697 
	C840.941772,461.639709 840.855103,452.283752 841.103882,442.486877 
	C841.439392,442.045959 841.910645,442.122925 841.910645,442.122925 
z"/>
<path fill="#1E2F63" opacity="1.000000" stroke="none" 
	d="
M852.393921,727.825806 
	C849.600586,731.063721 846.511597,734.452209 843.061157,737.788818 
	C845.832520,734.483398 848.965393,731.229858 852.393921,727.825806 
z"/>
<path fill="#2A62B0" opacity="1.000000" stroke="none" 
	d="
M478.665955,716.999878 
	C475.153961,719.555481 471.289185,722.168762 467.054321,724.694580 
	C470.560547,722.090576 474.436829,719.574036 478.665955,716.999878 
z"/>
<path fill="#2C3B6C" opacity="1.000000" stroke="none" 
	d="
M446.698273,718.319885 
	C450.425690,715.668823 454.493652,712.929382 458.934814,710.253174 
	C455.218323,712.954773 451.128540,715.593140 446.698273,718.319885 
z"/>
<path fill="#2A62B0" opacity="1.000000" stroke="none" 
	d="
M516.634705,693.028381 
	C513.554932,695.308838 510.128967,697.649658 506.327881,699.972534 
	C509.398041,697.665955 512.843262,695.377380 516.634705,693.028381 
z"/>
<path fill="#2C3B6C" opacity="1.000000" stroke="none" 
	d="
M427.701538,730.321106 
	C430.791107,728.027344 434.220184,725.644348 438.014282,723.374634 
	C434.933228,725.735901 431.487122,727.983887 427.701538,730.321106 
z"/>
<path fill="#1E2F63" opacity="1.000000" stroke="none" 
	d="
M880.934570,524.418701 
	C882.539429,527.220276 884.179321,530.388672 885.686462,533.947144 
	C884.025696,531.153259 882.497681,527.969360 880.934570,524.418701 
z"/>
<path fill="#1E2F63" opacity="1.000000" stroke="none" 
	d="
M844.832520,476.603302 
	C847.087646,478.372009 849.480469,480.440979 851.847900,482.870911 
	C849.538391,481.122406 847.254395,479.013000 844.832520,476.603302 
z"/>
<path fill="#1E2F63" opacity="1.000000" stroke="none" 
	d="
M826.604187,782.305725 
	C829.283997,780.598511 832.317932,778.816895 835.736206,777.057983 
	C833.066528,778.797607 830.012390,780.514465 826.604187,782.305725 
z"/>
<path fill="#2A62B0" opacity="1.000000" stroke="none" 
	d="
M403.293030,766.753662 
	C402.926910,766.632568 402.752686,766.391174 402.289825,766.117371 
	C404.368469,764.265686 406.655121,762.504639 409.279480,760.664917 
	C407.600006,762.582520 405.582794,764.578857 403.293030,766.753662 
z"/>
<path fill="#1E2F63" opacity="1.000000" stroke="none" 
	d="
M878.202515,690.837524 
	C877.017517,693.593811 875.604797,696.581177 873.833862,699.490967 
	C874.975464,696.631775 876.475159,693.850159 878.202515,690.837524 
z"/>
<path fill="#2A62B0" opacity="1.000000" stroke="none" 
	d="
M498.202026,704.636841 
	C496.086914,706.307007 493.643738,708.073303 490.809692,709.788269 
	C492.903870,708.068970 495.388947,706.401001 498.202026,704.636841 
z"/>
<path fill="#2C3B6C" opacity="1.000000" stroke="none" 
	d="
M500.684998,684.317505 
	C502.764618,682.671326 505.185211,680.950623 507.972809,679.314087 
	C505.901886,681.013184 503.463959,682.628113 500.684998,684.317505 
z"/>
<path fill="#2C3B6C" opacity="1.000000" stroke="none" 
	d="
M489.665405,691.309448 
	C491.735413,689.651855 494.147736,687.918823 496.928406,686.246033 
	C494.867126,687.948853 492.437408,689.591431 489.665405,691.309448 
z"/>
<path fill="#2C3B6C" opacity="1.000000" stroke="none" 
	d="
M481.680359,696.317261 
	C483.758362,694.668579 486.177246,692.942566 488.963806,691.295471 
	C486.894745,692.996216 484.457977,694.618042 481.680359,696.317261 
z"/>
<path fill="#2C3B6C" opacity="1.000000" stroke="none" 
	d="
M473.703522,701.326355 
	C475.778351,699.680420 478.191833,697.953003 480.972992,696.307983 
	C478.907837,698.008484 476.474976,699.626709 473.703522,701.326355 
z"/>
<path fill="#2C3B6C" opacity="1.000000" stroke="none" 
	d="
M462.702515,708.319275 
	C464.769775,706.671875 467.172363,704.933105 469.943176,703.263611 
	C467.886871,704.964539 465.462372,706.596191 462.702515,708.319275 
z"/>
<path fill="#2C3B6C" opacity="1.000000" stroke="none" 
	d="
M420.307678,734.929688 
	C422.184235,733.411316 424.402130,731.823120 426.986389,730.324707 
	C425.118164,731.896179 422.883575,733.378052 420.307678,734.929688 
z"/>
<path fill="#2A62B0" opacity="1.000000" stroke="none" 
	d="
M528.273621,685.679138 
	C526.215942,687.327026 523.829102,689.068726 521.075562,690.736816 
	C523.120667,689.033081 525.532593,687.403015 528.273621,685.679138 
z"/>
<path fill="#2A62B0" opacity="1.000000" stroke="none" 
	d="
M555.234741,668.673828 
	C553.175598,670.305664 550.794678,672.045837 548.046875,673.699097 
	C550.091064,672.002197 552.502075,670.392151 555.234741,668.673828 
z"/>
<path fill="#2A62B0" opacity="1.000000" stroke="none" 
	d="
M489.686340,710.051636 
	C487.825592,711.590210 485.622833,713.188782 483.055054,714.701294 
	C484.908173,713.114014 487.126251,711.612915 489.686340,710.051636 
z"/>
<path fill="#2C3B6C" opacity="1.000000" stroke="none" 
	d="
M600.573730,621.250244 
	C602.059631,619.993530 603.876648,618.662598 606.038940,617.471069 
	C604.557678,618.798950 602.731262,619.987549 600.573730,621.250244 
z"/>
<path fill="#2A62B0" opacity="1.000000" stroke="none" 
	d="
M606.599976,885.262146 
	C608.041382,883.964600 609.815063,882.596008 611.947815,881.296326 
	C610.515381,882.640442 608.723816,883.915771 606.599976,885.262146 
z"/>
<path fill="#2C3B6C" opacity="1.000000" stroke="none" 
	d="
M589.589722,628.263184 
	C591.063293,626.987122 592.867371,625.633484 595.026001,624.395508 
	C593.560425,625.735962 591.740356,626.960754 589.589722,628.263184 
z"/>
<path fill="#2A62B0" opacity="1.000000" stroke="none" 
	d="
M553.680420,920.329590 
	C555.115234,919.018005 556.880005,917.640320 559.001465,916.370178 
	C557.575562,917.739624 555.793030,919.001526 553.680420,920.329590 
z"/>
<path fill="#2C3B6C" opacity="1.000000" stroke="none" 
	d="
M562.598755,645.259338 
	C564.069397,643.988220 565.868286,642.633911 568.021240,641.394165 
	C566.559204,642.731201 564.743164,643.953674 562.598755,645.259338 
z"/>
<path fill="#1E2F63" opacity="1.000000" stroke="none" 
	d="
M834.373047,744.724609 
	C833.227295,745.990601 831.772156,747.372559 829.963623,748.640015 
	C831.094666,747.297180 832.579224,746.068909 834.373047,744.724609 
z"/>
<path fill="#2C3B6C" opacity="1.000000" stroke="none" 
	d="
M519.727966,672.349609 
	C520.797058,671.351990 522.187439,670.275879 523.943726,669.266724 
	C522.889587,670.312744 521.469421,671.291931 519.727966,672.349609 
z"/>
<path fill="#2A62B0" opacity="1.000000" stroke="none" 
	d="
M590.092651,646.616333 
	C589.062866,647.602234 587.732788,648.684143 586.038208,649.675537 
	C587.046570,648.627441 588.419434,647.669861 590.092651,646.616333 
z"/>
<path fill="#2C3B6C" opacity="1.000000" stroke="none" 
	d="
M527.761108,667.363770 
	C528.815857,666.361389 530.188904,665.277710 531.928833,664.251465 
	C530.890259,665.300049 529.484863,666.291199 527.761108,667.363770 
z"/>
<path fill="#2C3B6C" opacity="1.000000" stroke="none" 
	d="
M508.673157,679.333008 
	C509.747162,678.323181 511.149170,677.248352 512.916870,676.226562 
	C511.855408,677.275696 510.428284,678.271851 508.673157,679.333008 
z"/>
<path fill="#2A62B0" opacity="1.000000" stroke="none" 
	d="
M544.176331,675.625854 
	C543.108887,676.599121 541.737488,677.670166 540.006531,678.623047 
	C541.055420,677.577759 542.463928,676.650696 544.176331,675.625854 
z"/>
<path fill="#2C3B6C" opacity="1.000000" stroke="none" 
	d="
M438.748444,723.360840 
	C439.808685,722.359436 441.185822,721.268616 442.929840,720.240295 
	C441.886230,721.292297 440.475800,722.281799 438.748444,723.360840 
z"/>
<path fill="#2A62B0" opacity="1.000000" stroke="none" 
	d="
M595.818726,892.377747 
	C596.849792,891.374146 598.190918,890.278320 599.897766,889.231750 
	C598.885315,890.282532 597.507080,891.284058 595.818726,892.377747 
z"/>
<path fill="#2A62B0" opacity="1.000000" stroke="none" 
	d="
M583.726440,900.347412 
	C584.776489,899.338196 586.147400,898.253113 587.882324,897.210205 
	C586.846680,898.258728 585.447083,899.265137 583.726440,900.347412 
z"/>
<path fill="#1E2F63" opacity="1.000000" stroke="none" 
	d="
M842.130737,441.827850 
	C841.910645,442.122925 841.439392,442.045959 841.201355,442.027466 
	C840.963318,441.083496 840.963318,440.157990 840.963318,438.748718 
	C842.189026,439.316284 843.044861,439.712585 844.114746,440.334534 
	C843.669495,440.884369 843.010193,441.208557 842.130737,441.827850 
z"/>
<path fill="#1E2F63" opacity="1.000000" stroke="none" 
	d="
M863.168945,714.780273 
	C862.682312,715.922302 861.957886,717.253357 860.862793,718.526001 
	C861.305115,717.301514 862.118103,716.135437 863.168945,714.780273 
z"/>
<path fill="#1E2F63" opacity="1.000000" stroke="none" 
	d="
M838.115356,741.631104 
	C837.386475,742.596924 836.382263,743.697998 835.014038,744.716187 
	C835.713318,743.677612 836.776672,742.721985 838.115356,741.631104 
z"/>
<path fill="#2A62B0" opacity="1.000000" stroke="none" 
	d="
M505.624939,699.998718 
	C504.706146,700.913391 503.452423,701.878662 501.813263,702.792480 
	C502.715240,701.843872 504.002655,700.946594 505.624939,699.998718 
z"/>
<path fill="#1E2F63" opacity="1.000000" stroke="none" 
	d="
M849.907471,443.663086 
	C848.833862,443.414337 847.581360,442.889923 846.275696,442.001190 
	C847.391235,442.220398 848.559937,442.803864 849.907471,443.663086 
z"/>
<path fill="#2C3B6C" opacity="1.000000" stroke="none" 
	d="
M606.856201,617.379211 
	C607.500061,616.668152 608.437622,615.854004 609.750366,615.066772 
	C609.133728,615.821167 608.141846,616.548706 606.856201,617.379211 
z"/>
<path fill="#2A62B0" opacity="1.000000" stroke="none" 
	d="
M536.190186,680.614990 
	C535.524719,681.340332 534.557556,682.159851 533.213623,682.959595 
	C533.854126,682.196350 534.871338,681.452759 536.190186,680.614990 
z"/>
<path fill="#2A62B0" opacity="1.000000" stroke="none" 
	d="
M491.780182,961.377075 
	C492.423828,960.645386 493.366974,959.822815 494.677643,959.016479 
	C494.056671,959.783875 493.068176,960.534973 491.780182,961.377075 
z"/>
<path fill="#2A62B0" opacity="1.000000" stroke="none" 
	d="
M520.405396,690.713867 
	C519.712280,691.435547 518.701843,692.221497 517.329468,692.992004 
	C518.007690,692.243774 519.047852,691.510925 520.405396,690.713867 
z"/>
<path fill="#1E2F63" opacity="1.000000" stroke="none" 
	d="
M876.767456,516.485962 
	C877.461121,517.232361 878.215698,518.306091 878.944641,519.749451 
	C878.222168,519.017090 877.525269,517.915222 876.767456,516.485962 
z"/>
<path fill="#2C3B6C" opacity="1.000000" stroke="none" 
	d="
M516.630188,674.325928 
	C517.105408,673.677490 517.883545,672.968384 519.013184,672.362549 
	C518.554138,673.065552 517.743591,673.665405 516.630188,674.325928 
z"/>
<path fill="#2A62B0" opacity="1.000000" stroke="none" 
	d="
M531.528992,683.625122 
	C531.019409,684.273926 530.201111,685.016235 529.024170,685.649536 
	C529.517212,684.933289 530.368713,684.325928 531.528992,683.625122 
z"/>
<path fill="#2C3B6C" opacity="1.000000" stroke="none" 
	d="
M497.564484,686.284729 
	C498.047791,685.634338 498.839874,684.928955 499.982574,684.311035 
	C499.513214,685.008911 498.693237,685.619324 497.564484,686.284729 
z"/>
<path fill="#2A62B0" opacity="1.000000" stroke="none" 
	d="
M539.283569,678.642212 
	C538.820007,679.276611 538.072388,679.993469 536.982361,680.569458 
	C537.426514,679.860718 538.213074,679.292664 539.283569,678.642212 
z"/>
<path fill="#2A62B0" opacity="1.000000" stroke="none" 
	d="
M466.348389,724.690430 
	C465.828278,725.353149 464.986084,726.090454 463.762054,726.764648 
	C464.262238,726.056030 465.144226,725.410583 466.348389,724.690430 
z"/>
<path fill="#2A62B0" opacity="1.000000" stroke="none" 
	d="
M547.376709,673.685913 
	C546.888062,674.314880 546.106506,675.013977 544.985657,675.568909 
	C545.458862,674.868530 546.271301,674.312317 547.376709,673.685913 
z"/>
<path fill="#2C3B6C" opacity="1.000000" stroke="none" 
	d="
M513.540283,676.266174 
	C514.029541,675.620422 514.829468,674.919800 515.980347,674.300293 
	C515.504456,674.991333 514.677673,675.601318 513.540283,676.266174 
z"/>
<path fill="#1E2F63" opacity="1.000000" stroke="none" 
	d="
M872.620728,509.699402 
	C873.248169,510.183655 873.969360,510.949432 874.527710,512.060547 
	C873.814697,511.597565 873.264526,510.789246 872.620728,509.699402 
z"/>
<path fill="#2A62B0" opacity="1.000000" stroke="none" 
	d="
M559.711365,916.367615 
	C560.162964,915.711182 560.911133,914.991699 562.011108,914.383545 
	C561.577942,915.098145 560.792969,915.701416 559.711365,916.367615 
z"/>
<path fill="#2A62B0" opacity="1.000000" stroke="none" 
	d="
M480.335754,968.996521 
	C480.790833,968.362610 481.555298,967.680969 482.676270,967.009277 
	C482.236847,967.662476 481.440979,968.305603 480.335754,968.996521 
z"/>
<path fill="#2A62B0" opacity="1.000000" stroke="none" 
	d="
M558.404480,666.705872 
	C557.915710,667.341858 557.127197,668.040100 555.994263,668.614014 
	C556.468140,667.915833 557.286438,667.341980 558.404480,666.705872 
z"/>
<path fill="#2C3B6C" opacity="1.000000" stroke="none" 
	d="
M524.587708,669.306274 
	C525.081299,668.664429 525.880554,667.970032 527.028381,667.390320 
	C526.549133,668.087891 525.721252,668.670837 524.587708,669.306274 
z"/>
<path fill="#2A62B0" opacity="1.000000" stroke="none" 
	d="
M477.350220,971.018372 
	C477.802582,970.376038 478.565216,969.690002 479.686066,969.017822 
	C479.249664,969.679382 478.455109,970.327026 477.350220,971.018372 
z"/>
<path fill="#2A62B0" opacity="1.000000" stroke="none" 
	d="
M562.725769,914.366821 
	C563.161682,913.699524 563.894348,912.965637 564.981079,912.325928 
	C564.564331,913.046814 563.793457,913.673523 562.725769,914.366821 
z"/>
<path fill="#2A62B0" opacity="1.000000" stroke="none" 
	d="
M565.661743,912.347656 
	C566.117004,911.680664 566.875488,910.959656 567.985840,910.338074 
	C567.546753,911.056213 566.755859,911.674988 565.661743,912.347656 
z"/>
<path fill="#2C3B6C" opacity="1.000000" stroke="none" 
	d="
M532.567810,664.281982 
	C533.059082,663.641602 533.857727,662.943970 535.006714,662.342773 
	C534.529785,663.034302 533.702454,663.629517 532.567810,664.281982 
z"/>
<path fill="#2C3B6C" opacity="1.000000" stroke="none" 
	d="
M470.585266,703.302368 
	C471.066956,702.651062 471.855469,701.942139 472.995453,701.326538 
	C472.528656,702.028198 471.710358,702.636475 470.585266,703.302368 
z"/>
<path fill="#2A62B0" opacity="1.000000" stroke="none" 
	d="
M482.356018,714.694580 
	C481.836639,715.358582 480.994263,716.095093 479.770325,716.770874 
	C480.270172,716.062500 481.151611,715.414795 482.356018,714.694580 
z"/>
<path fill="#1E2F63" opacity="1.000000" stroke="none" 
	d="
M865.300171,711.794556 
	C865.104492,712.605469 864.668457,713.591614 863.860107,714.528076 
	C864.011780,713.642212 864.535828,712.806030 865.300171,711.794556 
z"/>
<path fill="#2C3B6C" opacity="1.000000" stroke="none" 
	d="
M443.556152,720.281494 
	C444.046875,719.634521 444.845947,718.929321 445.995911,718.319214 
	C445.519348,719.017395 444.691925,719.620361 443.556152,720.281494 
z"/>
<path fill="#2A62B0" opacity="1.000000" stroke="none" 
	d="
M495.336487,958.998535 
	C495.797150,958.364746 496.567230,957.683960 497.695496,957.019714 
	C497.251099,957.674683 496.448517,958.313049 495.336487,958.998535 
z"/>
<path fill="#2C3B6C" opacity="1.000000" stroke="none" 
	d="
M459.572937,710.297241 
	C460.059082,709.646545 460.854431,708.940430 462.002014,708.327637 
	C461.530212,709.028015 460.706177,709.634949 459.572937,710.297241 
z"/>
<path fill="#2A62B0" opacity="1.000000" stroke="none" 
	d="
M541.620850,928.317139 
	C542.074097,927.648376 542.833496,926.923706 543.943726,926.277832 
	C543.505432,926.991455 542.716248,927.626282 541.620850,928.317139 
z"/>
<path fill="#2A62B0" opacity="1.000000" stroke="none" 
	d="
M486.314087,964.966431 
	C486.771545,964.337280 487.537018,963.661987 488.655640,962.996216 
	C488.213257,963.643921 487.417664,964.282104 486.314087,964.966431 
z"/>
<path fill="#2A62B0" opacity="1.000000" stroke="none" 
	d="
M544.604858,926.293945 
	C545.067322,925.636292 545.835815,924.919556 546.955811,924.278687 
	C546.508545,924.981384 545.709656,925.608032 544.604858,926.293945 
z"/>
<path fill="#2A62B0" opacity="1.000000" stroke="none" 
	d="
M550.615906,922.311279 
	C551.083252,921.654419 551.855164,920.939880 552.977417,920.318604 
	C552.525391,921.025696 551.722900,921.639648 550.615906,922.311279 
z"/>
<path fill="#1E2F63" opacity="1.000000" stroke="none" 
	d="
M873.149536,699.840820 
	C873.018555,700.630981 872.682312,701.638489 871.973816,702.685791 
	C872.049133,701.836487 872.496643,700.947388 873.149536,699.840820 
z"/>
<path fill="#2A62B0" opacity="1.000000" stroke="none" 
	d="
M483.321899,966.977051 
	C483.778381,966.349792 484.541229,965.668335 485.658691,964.997437 
	C485.218292,965.646301 484.423248,966.284546 483.321899,966.977051 
z"/>
<path fill="#1E2F63" opacity="1.000000" stroke="none" 
	d="
M868.638489,503.702271 
	C869.290588,504.147980 870.047546,504.882446 870.724243,505.980957 
	C870.010498,505.560333 869.376953,504.775696 868.638489,503.702271 
z"/>
<path fill="#1E2F63" opacity="1.000000" stroke="none" 
	d="
M870.687012,506.597046 
	C871.319519,507.093445 872.037720,507.886658 872.632812,509.034485 
	C871.930725,508.557373 871.351746,507.725616 870.687012,506.597046 
z"/>
<path fill="#2A62B0" opacity="1.000000" stroke="none" 
	d="
M566.389038,661.704346 
	C565.896912,662.333374 565.108582,663.024475 563.979980,663.578735 
	C564.457336,662.883423 565.275146,662.324951 566.389038,661.704346 
z"/>
<path fill="#1E2F63" opacity="1.000000" stroke="none" 
	d="
M858.482422,720.852051 
	C858.231750,721.661499 857.714722,722.604431 856.842163,723.460876 
	C857.063171,722.578064 857.639648,721.781799 858.482422,720.852051 
z"/>
<path fill="#2A62B0" opacity="1.000000" stroke="none" 
	d="
M547.603394,924.298828 
	C548.067993,923.643066 548.837402,922.924561 549.957520,922.288330 
	C549.508179,922.992493 548.708130,923.614319 547.603394,924.298828 
z"/>
<path fill="#2C3B6C" opacity="1.000000" stroke="none" 
	d="
M573.585205,638.295044 
	C574.081970,637.661926 574.880920,636.967285 576.027832,636.389282 
	C575.546387,637.081787 574.716858,637.657593 573.585205,638.295044 
z"/>
<path fill="#2C3B6C" opacity="1.000000" stroke="none" 
	d="
M554.708130,650.356018 
	C555.172607,649.719055 555.927490,649.008789 557.030518,648.421875 
	C556.585266,649.124390 555.791931,649.703552 554.708130,650.356018 
z"/>
<path fill="#2C3B6C" opacity="1.000000" stroke="none" 
	d="
M611.628784,614.306396 
	C612.113342,613.674927 612.891907,612.959656 614.021790,612.361328 
	C613.556274,613.059692 612.739563,613.641235 611.628784,614.306396 
z"/>
<path fill="#2A62B0" opacity="1.000000" stroke="none" 
	d="
M471.329224,974.988892 
	C471.793884,974.358887 472.569397,973.684448 473.702942,973.026062 
	C473.253967,973.676270 472.447021,974.310425 471.329224,974.988892 
z"/>
<path fill="#2A62B0" opacity="1.000000" stroke="none" 
	d="
M593.243774,644.630371 
	C592.786987,645.256592 592.051086,645.957214 590.979553,646.503296 
	C591.417542,645.800781 592.191040,645.252747 593.243774,644.630371 
z"/>
<path fill="#2A62B0" opacity="1.000000" stroke="none" 
	d="
M596.381104,642.696045 
	C595.895813,643.324219 595.114868,644.017273 593.991943,644.582336 
	C594.461792,643.889893 595.273621,643.325439 596.381104,642.696045 
z"/>
<path fill="#2A62B0" opacity="1.000000" stroke="none" 
	d="
M599.406372,640.723389 
	C598.936157,641.367737 598.163147,642.077026 597.041016,642.702637 
	C597.495728,642.008728 598.299622,641.398560 599.406372,640.723389 
z"/>
<path fill="#2A62B0" opacity="1.000000" stroke="none" 
	d="
M604.330811,637.654175 
	C603.846619,638.274536 603.075684,638.957886 601.973877,639.478455 
	C602.443420,638.782837 603.243713,638.250000 604.330811,637.654175 
z"/>
<path fill="#2A62B0" opacity="1.000000" stroke="none" 
	d="
M607.467285,635.751587 
	C606.969727,636.388733 606.163879,637.075012 605.012939,637.655762 
	C605.498169,636.967041 606.328552,636.383789 607.467285,635.751587 
z"/>
<path fill="#2A62B0" opacity="1.000000" stroke="none" 
	d="
M588.517090,897.227417 
	C588.990784,896.577942 589.776245,895.872559 590.909485,895.220581 
	C590.447815,895.906555 589.638367,896.539062 588.517090,897.227417 
z"/>
<path fill="#2A62B0" opacity="1.000000" stroke="none" 
	d="
M600.543945,889.255005 
	C601.023926,888.608521 601.815247,887.910645 602.956116,887.281250 
	C602.488831,887.967712 601.672058,888.585754 600.543945,889.255005 
z"/>
<path fill="#1E2F63" opacity="1.000000" stroke="none" 
	d="
M820.423706,785.173584 
	C821.247986,784.527344 822.408997,783.841736 823.928772,783.221497 
	C823.111816,783.902649 821.936157,784.518433 820.423706,785.173584 
z"/>
<path fill="#2A62B0" opacity="1.000000" stroke="none" 
	d="
M612.302124,632.653870 
	C611.832153,633.286255 611.075134,633.992371 609.977722,634.552490 
	C610.429932,633.846863 611.222534,633.287231 612.302124,632.653870 
z"/>
<path fill="#2C3B6C" opacity="1.000000" stroke="none" 
	d="
M581.578003,633.289612 
	C582.067566,632.649048 582.863342,631.950256 584.009399,631.349976 
	C583.534546,632.042786 582.709351,632.637085 581.578003,633.289612 
z"/>
<path fill="#2A62B0" opacity="1.000000" stroke="none" 
	d="
M603.604004,887.286438 
	C604.060608,886.632996 604.821350,885.911743 605.933350,885.255493 
	C605.492493,885.953125 604.700317,886.585876 603.604004,887.286438 
z"/>
<path fill="#2A62B0" opacity="1.000000" stroke="none" 
	d="
M615.683960,879.340698 
	C616.128052,878.683960 616.869690,877.956787 617.964050,877.314636 
	C617.538330,878.023193 616.759888,878.646790 615.683960,879.340698 
z"/>
<path fill="#2A62B0" opacity="1.000000" stroke="none" 
	d="
M612.617126,881.300293 
	C613.091675,880.655212 613.869080,879.951660 614.995972,879.348145 
	C614.536926,880.046021 613.728455,880.643921 612.617126,881.300293 
z"/>
<path fill="#2A62B0" opacity="1.000000" stroke="none" 
	d="
M585.350952,649.685974 
	C584.868347,650.311829 584.094543,651.012207 582.977051,651.577515 
	C583.442200,650.881714 584.250916,650.321167 585.350952,649.685974 
z"/>
<path fill="#2C3B6C" opacity="1.000000" stroke="none" 
	d="
M535.677856,662.341492 
	C536.151306,661.704712 536.918518,660.994080 538.036194,660.403076 
	C537.581665,661.104370 536.776672,661.686035 535.677856,662.341492 
z"/>
<path fill="#2A62B0" opacity="1.000000" stroke="none" 
	d="
M568.675415,910.351074 
	C569.133728,909.692261 569.892944,908.975830 571.004761,908.362549 
	C570.563538,909.074951 569.769897,909.684204 568.675415,910.351074 
z"/>
<path fill="#2A62B0" opacity="1.000000" stroke="none" 
	d="
M571.697998,908.366089 
	C572.158508,907.713928 572.915771,907.001709 574.021484,906.412170 
	C573.578186,907.125183 572.786438,907.715576 571.697998,908.366089 
z"/>
<path fill="#2A62B0" opacity="1.000000" stroke="none" 
	d="
M574.395447,656.701599 
	C573.904358,657.331970 573.116089,658.029480 571.984619,658.594116 
	C572.460327,657.897034 573.279358,657.332886 574.395447,656.701599 
z"/>
<path fill="#2C3B6C" opacity="1.000000" stroke="none" 
	d="
M540.520081,659.249084 
	C541.014404,658.606689 541.820435,657.910767 542.976501,657.294189 
	C542.494934,657.980896 541.663391,658.588196 540.520081,659.249084 
z"/>
<path fill="#2A62B0" opacity="1.000000" stroke="none" 
	d="
M577.423828,654.732666 
	C576.950562,655.381042 576.171265,656.088562 575.041748,656.715698 
	C575.500305,656.020874 576.309082,655.406433 577.423828,654.732666 
z"/>
<path fill="#2C3B6C" opacity="1.000000" stroke="none" 
	d="
M543.621155,657.316467 
	C544.106079,656.679382 544.891663,655.978882 546.027222,655.390076 
	C545.558777,656.085571 544.740295,656.669312 543.621155,657.316467 
z"/>
<path fill="#2A62B0" opacity="1.000000" stroke="none" 
	d="
M574.758423,906.382629 
	C575.198914,905.727051 575.930664,905.003601 577.014648,904.394226 
	C576.594482,905.110413 575.822083,905.712585 574.758423,906.382629 
z"/>
<path fill="#2C3B6C" opacity="1.000000" stroke="none" 
	d="
M551.524719,652.248291 
	C552.036011,651.628174 552.852844,650.947021 554.016846,650.371582 
	C553.519409,651.047302 552.674866,651.617249 551.524719,652.248291 
z"/>
<path fill="#2A62B0" opacity="1.000000" stroke="none" 
	d="
M577.735474,904.379028 
	C578.179321,903.718201 578.919312,902.995972 580.010986,902.386475 
	C579.585571,903.105286 578.808594,903.711487 577.735474,904.379028 
z"/>
<path fill="#2A62B0" opacity="1.000000" stroke="none" 
	d="
M474.344177,973.010254 
	C474.803925,972.376770 475.572968,971.693176 476.700958,971.028564 
	C476.257782,971.685059 475.455658,972.322632 474.344177,973.010254 
z"/>
<path fill="#2A62B0" opacity="1.000000" stroke="none" 
	d="
M580.727173,902.367676 
	C581.170532,901.707153 581.909180,900.981506 583.000610,900.363037 
	C582.576416,901.080994 581.799377,901.691772 580.727173,902.367676 
z"/>
<path fill="#2A62B0" opacity="1.000000" stroke="none" 
	d="
M582.231689,651.627319 
	C581.778320,652.254944 581.048828,652.972961 579.977295,653.542847 
	C580.408752,652.835815 581.182129,652.276794 582.231689,651.627319 
z"/>
<path fill="#1E2F63" opacity="1.000000" stroke="none" 
	d="
M853.022095,445.664856 
	C852.222107,445.475006 851.256226,445.006104 850.159668,444.222229 
	C850.971375,444.400146 851.913757,444.893005 853.022095,445.664856 
z"/>
<path fill="#2A62B0" opacity="1.000000" stroke="none" 
	d="
M500.739441,703.051514 
	C500.449921,703.581116 499.871674,704.149048 498.964050,704.593933 
	C499.239990,704.010559 499.845367,703.550232 500.739441,703.051514 
z"/>
<path fill="#1E2F63" opacity="1.000000" stroke="none" 
	d="
M859.935791,492.372620 
	C860.507568,492.595093 861.150757,493.110138 861.738159,493.978729 
	C861.124023,493.776581 860.565613,493.220917 859.935791,492.372620 
z"/>
<path fill="#2A62B0" opacity="1.000000" stroke="none" 
	d="
M569.516968,659.791138 
	C569.021240,660.426514 568.215759,661.106079 567.066650,661.701172 
	C567.551086,661.022949 568.379150,660.429199 569.516968,659.791138 
z"/>
<path fill="#2A62B0" opacity="1.000000" stroke="none" 
	d="
M489.292847,962.973938 
	C489.574432,962.437256 490.144135,961.866272 491.044556,961.418823 
	C490.777161,962.008118 490.179047,962.473877 489.292847,962.973938 
z"/>
<path fill="#2C3B6C" opacity="1.000000" stroke="none" 
	d="
M584.674072,631.350708 
	C585.176819,630.765991 585.971985,630.104065 587.105896,629.527832 
	C586.618591,630.166870 585.792603,630.720215 584.674072,631.350708 
z"/>
<path fill="#1E2F63" opacity="1.000000" stroke="none" 
	d="
M840.962036,471.309479 
	C841.028442,470.995697 841.505066,471.000488 841.742065,470.979248 
	C841.973633,471.453094 841.968262,471.948242 841.898926,472.811462 
	C841.521851,472.660797 841.208740,472.142029 840.962036,471.309479 
z"/>
<path fill="#1E2F63" opacity="1.000000" stroke="none" 
	d="
M839.449829,775.238220 
	C839.596924,774.889099 840.047363,774.479065 840.830383,774.056519 
	C840.693054,774.421814 840.223083,774.799561 839.449829,775.238220 
z"/>
<path fill="#1E2F63" opacity="1.000000" stroke="none" 
	d="
M857.660278,489.643616 
	C858.015137,489.717926 858.471924,490.057678 858.955200,490.720276 
	C858.575256,490.665131 858.168762,490.287109 857.660278,489.643616 
z"/>
<path fill="#1E2F63" opacity="1.000000" stroke="none" 
	d="
M818.266418,786.179565 
	C818.461914,785.830627 818.984375,785.469360 819.845276,785.128052 
	C819.653564,785.487793 819.123474,785.827515 818.266418,786.179565 
z"/>
<path fill="#1E2F63" opacity="1.000000" stroke="none" 
	d="
M846.119507,441.447479 
	C845.661133,441.535706 845.036621,441.375641 844.357666,440.869354 
	C844.853271,440.748505 845.403259,440.973846 846.119507,441.447479 
z"/>
<path fill="#1E2F63" opacity="1.000000" stroke="none" 
	d="
M824.497803,783.322632 
	C824.669861,782.972107 825.142822,782.575500 825.958496,782.250977 
	C825.800293,782.640930 825.299500,782.958740 824.497803,783.322632 
z"/>
<path fill="#2A62B0" opacity="1.000000" stroke="none" 
	d="
M592.764038,894.410828 
	C592.851013,894.041748 593.210266,893.608948 593.902100,893.217773 
	C593.835205,893.621948 593.435791,893.984558 592.764038,894.410828 
z"/>
<path fill="#1E2F63" opacity="1.000000" stroke="none" 
	d="
M837.598694,776.373718 
	C837.727051,776.014282 838.144653,775.579834 838.906250,775.183105 
	C838.796204,775.580200 838.342102,775.939453 837.598694,776.373718 
z"/>
<path fill="#2C3B6C" opacity="1.000000" stroke="none" 
	d="
M570.502747,640.264587 
	C570.629333,639.904602 571.051880,639.493469 571.797668,639.085876 
	C571.680176,639.464050 571.239441,639.838806 570.502747,640.264587 
z"/>
<path fill="#2A62B0" opacity="1.000000" stroke="none" 
	d="
M579.206177,653.581787 
	C579.114136,653.935425 578.763306,654.366699 578.078613,654.731934 
	C578.145569,654.330444 578.546448,653.994934 579.206177,653.581787 
z"/>
<path fill="#2C3B6C" opacity="1.000000" stroke="none" 
	d="
M546.704346,655.375610 
	C546.799866,655.015015 547.171692,654.579712 547.875610,654.167480 
	C547.798645,654.560730 547.389648,654.930847 546.704346,655.375610 
z"/>
<path fill="#2C3B6C" opacity="1.000000" stroke="none" 
	d="
M549.746948,653.413025 
	C549.844421,653.049377 550.217285,652.617432 550.925659,652.230103 
	C550.848267,652.631470 550.435242,652.988098 549.746948,653.413025 
z"/>
<path fill="#2C3B6C" opacity="1.000000" stroke="none" 
	d="
M557.742737,648.404297 
	C557.844727,648.045898 558.221558,647.620056 558.932617,647.242065 
	C558.850464,647.638794 558.434021,647.987854 557.742737,648.404297 
z"/>
<path fill="#2C3B6C" opacity="1.000000" stroke="none" 
	d="
M560.865112,646.419067 
	C560.949280,646.076111 561.284729,645.644653 561.953430,645.270447 
	C561.896545,645.661926 561.506470,645.996277 560.865112,646.419067 
z"/>
<path fill="#2A62B0" opacity="1.000000" stroke="none" 
	d="
M469.450806,976.216064 
	C469.572235,975.851624 469.986572,975.442505 470.717438,975.028076 
	C470.603882,975.405701 470.173828,975.788574 469.450806,976.216064 
z"/>
<path fill="#2A62B0" opacity="1.000000" stroke="none" 
	d="
M601.116211,639.570557 
	C601.039978,639.919678 600.714600,640.347290 600.058289,640.709717 
	C600.107300,640.312805 600.487244,639.981018 601.116211,639.570557 
z"/>
<path fill="#2C3B6C" opacity="1.000000" stroke="none" 
	d="
M568.707520,641.391541 
	C568.816772,641.033752 569.203735,640.608521 569.924927,640.229370 
	C569.834534,640.625061 569.409851,640.974548 568.707520,641.391541 
z"/>
<path fill="#1E2F63" opacity="1.000000" stroke="none" 
	d="
M862.651611,495.652100 
	C863.007324,495.742706 863.467468,496.105896 863.948181,496.803101 
	C863.564514,496.732941 863.160278,496.328796 862.651611,495.652100 
z"/>
<path fill="#2A62B0" opacity="1.000000" stroke="none" 
	d="
M609.221985,634.594238 
	C609.132202,634.945984 608.782104,635.382202 608.097412,635.767273 
	C608.162476,635.370300 608.562073,635.024414 609.221985,634.594238 
z"/>
<path fill="#2C3B6C" opacity="1.000000" stroke="none" 
	d="
M576.700928,636.381958 
	C576.813416,636.033569 577.200256,635.608887 577.921021,635.226929 
	C577.828430,635.614929 577.401855,635.960266 576.700928,636.381958 
z"/>
<path fill="#2A62B0" opacity="1.000000" stroke="none" 
	d="
M466.475128,978.233154 
	C466.587708,977.868225 466.990692,977.450623 467.710083,977.023926 
	C467.606201,977.403381 467.185883,977.791992 466.475128,978.233154 
z"/>
<path fill="#2C3B6C" opacity="1.000000" stroke="none" 
	d="
M579.890686,634.411743 
	C579.971252,634.073669 580.298340,633.645386 580.956665,633.275146 
	C580.904297,633.662598 580.520691,633.992065 579.890686,634.411743 
z"/>
<path fill="#2C3B6C" opacity="1.000000" stroke="none" 
	d="
M587.852783,629.419189 
	C587.939209,629.076660 588.275818,628.639709 588.948120,628.260986 
	C588.890198,628.654358 588.496582,628.989502 587.852783,629.419189 
z"/>
<path fill="#2C3B6C" opacity="1.000000" stroke="none" 
	d="
M598.824585,622.418091 
	C598.912476,622.072327 599.255371,621.634155 599.934937,621.247803 
	C599.874329,621.641541 599.476929,621.983582 598.824585,622.418091 
z"/>
<path fill="#2C3B6C" opacity="1.000000" stroke="none" 
	d="
M595.706177,624.366699 
	C595.805786,624.020142 596.174255,623.582520 596.875854,623.168457 
	C596.797668,623.553284 596.386353,623.914490 595.706177,624.366699 
z"/>
<path fill="#2A62B0" opacity="1.000000" stroke="none" 
	d="
M571.279785,658.615906 
	C571.186584,658.974243 570.824646,659.412537 570.128906,659.812134 
	C570.200378,659.414246 570.605713,659.055054 571.279785,658.615906 
z"/>
<path fill="#1E2F63" opacity="1.000000" stroke="none" 
	d="
M866.649048,709.997742 
	C866.671509,710.440369 866.435425,711.015076 865.867188,711.610901 
	C865.820190,711.131287 866.105408,710.630554 866.649048,709.997742 
z"/>
<path fill="#093995" opacity="1.000000" stroke="none" 
	d="
M638.563538,339.944092 
	C638.620117,340.230743 638.419861,340.549805 637.962158,340.819916 
	C637.905396,340.506165 638.106079,340.241364 638.563538,339.944092 
z"/>
<path fill="#1E2F63" opacity="1.000000" stroke="none" 
	d="
M869.487915,705.864380 
	C869.539124,706.324463 869.346985,706.925781 868.809326,707.511963 
	C868.724060,706.999817 868.984314,706.502686 869.487915,705.864380 
z"/>
<path fill="#1E2F63" opacity="1.000000" stroke="none" 
	d="
M871.411377,702.810425 
	C871.469482,703.275940 871.295654,703.872253 870.780579,704.409668 
	C870.686096,703.880981 870.932800,703.411194 871.411377,702.810425 
z"/>
<path fill="#1E2F63" opacity="1.000000" stroke="none" 
	d="
M866.573120,500.841187 
	C866.925598,500.907684 867.390564,501.225677 867.831482,501.887390 
	C867.433472,501.851624 867.059448,501.472137 866.573120,500.841187 
z"/>
<path fill="#1E2F63" opacity="1.000000" stroke="none" 
	d="
M879.299622,688.830322 
	C879.393799,689.273438 879.281799,689.900635 878.813538,690.534912 
	C878.669312,690.032898 878.881348,689.523682 879.299622,688.830322 
z"/>
<path fill="#1E2F63" opacity="1.000000" stroke="none" 
	d="
M874.535095,512.820679 
	C874.888916,512.923157 875.336121,513.283630 875.699585,513.992554 
	C875.286682,513.920166 874.957642,513.499451 874.535095,512.820679 
z"/>
<path fill="#1E2F63" opacity="1.000000" stroke="none" 
	d="
M875.638672,514.582764 
	C875.995178,514.715515 876.425293,515.139099 876.816833,515.906189 
	C876.422913,515.791016 876.067566,515.332397 875.638672,514.582764 
z"/>
<path fill="#1E2F63" opacity="1.000000" stroke="none" 
	d="
M878.893066,520.343872 
	C879.226624,520.516357 879.579163,520.997375 879.927368,521.797852 
	C879.585999,521.629028 879.248962,521.140747 878.893066,520.343872 
z"/>
<path fill="#1E2F63" opacity="1.000000" stroke="none" 
	d="
M879.901489,522.340881 
	C880.230225,522.512329 880.584229,522.989319 880.936279,523.783997 
	C880.598511,523.616577 880.262573,523.131470 879.901489,522.340881 
z"/>
<path fill="#2C3B6C" opacity="1.000000" stroke="none" 
	d="
M617.872986,610.428223 
	C617.948364,610.081177 618.275940,609.642334 618.940125,609.250610 
	C618.892944,609.643921 618.509033,609.990112 617.872986,610.428223 
z"/>
<path fill="#2A62B0" opacity="1.000000" stroke="none" 
	d="
M561.502441,664.749268 
	C561.379639,665.111084 560.963623,665.521729 560.226929,665.925781 
	C560.340576,665.545471 560.774841,665.171753 561.502441,664.749268 
z"/>
<path fill="#2A62B0" opacity="1.000000" stroke="none" 
	d="
M563.257812,663.598816 
	C563.160461,663.954956 562.796387,664.389832 562.097534,664.776123 
	C562.172241,664.377563 562.581604,664.027527 563.257812,663.598816 
z"/>
<path fill="#2C3B6C" opacity="1.000000" stroke="none" 
	d="
M614.670471,612.369324 
	C614.782349,612.020447 615.168274,611.583740 615.891235,611.181580 
	C615.800354,611.571228 615.372498,611.926392 614.670471,612.369324 
z"/>
<path fill="#2C3B6C" opacity="1.000000" stroke="none" 
	d="
M538.718445,660.394897 
	C538.824585,660.038696 539.204651,659.608154 539.919800,659.221802 
	C539.833984,659.617554 539.413208,659.969055 538.718445,660.394897 
z"/>
<path fill="#2A62B0" opacity="1.000000" stroke="none" 
	d="
M594.457886,893.247009 
	C594.421692,892.995605 594.628296,892.715820 595.107910,892.497498 
	C595.265137,892.893127 595.038391,893.112976 594.457886,893.247009 
z"/>
<path fill="#2A62B0" opacity="1.000000" stroke="none" 
	d="
M468.275574,976.992676 
	C468.237457,976.761597 468.465759,976.496826 468.964294,976.213928 
	C469.003723,976.450195 468.772827,976.704590 468.275574,976.992676 
z"/>
<path fill="#2A62B0" opacity="1.000000" stroke="none" 
	d="
M591.476807,895.257812 
	C591.434570,895.005615 591.631958,894.723450 592.100708,894.500244 
	C592.264832,894.891174 592.046326,895.114075 591.476807,895.257812 
z"/>
<path fill="#2A62B0" opacity="1.000000" stroke="none" 
	d="
M465.278076,979.013733 
	C465.242676,978.782471 465.475708,978.517151 465.981873,978.236816 
	C466.018860,978.474365 465.782684,978.727051 465.278076,979.013733 
z"/>
<path fill="#1E2F63" opacity="1.000000" stroke="none" 
	d="
M867.789001,502.406921 
	C868.035095,502.370819 868.329773,502.597351 868.593262,503.118103 
	C868.320618,503.164734 868.079102,502.917145 867.789001,502.406921 
z"/>
<path fill="#1E2F63" opacity="1.000000" stroke="none" 
	d="
M859.369263,719.730042 
	C859.488953,719.956299 859.371338,720.304871 858.969604,720.727295 
	C858.834290,720.484924 858.983215,720.168640 859.369263,719.730042 
z"/>
<path fill="#1E2F63" opacity="1.000000" stroke="none" 
	d="
M860.224731,718.696167 
	C860.340210,718.915466 860.254944,719.255798 859.877075,719.612244 
	C859.629944,719.303284 859.776428,719.032898 860.224731,718.696167 
z"/>
<path fill="#1E2F63" opacity="1.000000" stroke="none" 
	d="
M861.721313,494.536499 
	C861.967224,494.465942 862.287842,494.644318 862.600464,495.117859 
	C862.326965,495.203827 862.061523,494.994629 861.721313,494.536499 
z"/>
<path fill="#1E2F63" opacity="1.000000" stroke="none" 
	d="
M864.783325,498.370239 
	C865.017029,498.318512 865.334106,498.543640 865.685303,499.070740 
	C865.435120,499.130859 865.150879,498.888947 864.783325,498.370239 
z"/>
<path fill="#1E2F63" opacity="1.000000" stroke="none" 
	d="
M867.509277,708.813293 
	C867.629028,709.031128 867.499146,709.371277 867.111389,709.829346 
	C866.988953,709.610046 867.124329,709.272888 867.509277,708.813293 
z"/>
<path fill="#1E2F63" opacity="1.000000" stroke="none" 
	d="
M868.216919,707.739136 
	C868.355164,707.943604 868.295288,708.293091 867.953247,708.715027 
	C867.681152,708.445679 867.797058,708.144531 868.216919,707.739136 
z"/>
<path fill="#1E2F63" opacity="1.000000" stroke="none" 
	d="
M870.115540,704.787903 
	C870.263977,704.973083 870.240906,705.308899 869.945618,705.720337 
	C869.660950,705.477722 869.751221,705.191895 870.115540,704.787903 
z"/>
<path fill="#1E2F63" opacity="1.000000" stroke="none" 
	d="
M865.679932,499.530396 
	C865.931885,499.488464 866.237427,499.676575 866.460327,500.147339 
	C866.081482,500.285156 865.866821,500.062012 865.679932,499.530396 
z"/>
<path fill="#1E2F63" opacity="1.000000" stroke="none" 
	d="
M859.020142,491.272278 
	C859.230469,491.221252 859.504089,491.432312 859.856689,491.896790 
	C859.651550,491.944916 859.367432,491.739655 859.020142,491.272278 
z"/>
<path fill="#2C3B6C" opacity="1.000000" stroke="none" 
	d="
M616.403564,611.244263 
	C616.394104,611.000488 616.618103,610.740601 617.101929,610.575195 
	C617.200256,610.959778 616.958679,611.145935 616.403564,611.244263 
z"/>
<path fill="#2A62B0" opacity="1.000000" stroke="none" 
	d="
M559.680420,665.919556 
	C559.712646,666.160278 559.479126,666.426270 558.969604,666.680847 
	C558.933899,666.427856 559.174316,666.186340 559.680420,665.919556 
z"/>
<path fill="#2C3B6C" opacity="1.000000" stroke="none" 
	d="
M548.397827,654.206787 
	C548.375610,653.962341 548.601807,653.690674 549.103027,653.479614 
	C549.237549,653.871826 548.993652,654.084900 548.397827,654.206787 
z"/>
<path fill="#2C3B6C" opacity="1.000000" stroke="none" 
	d="
M559.472656,647.281738 
	C559.446716,647.037476 559.645996,646.768799 560.103027,646.585632 
	C560.225830,646.963928 560.004944,647.159241 559.472656,647.281738 
z"/>
<path fill="#2C3B6C" opacity="1.000000" stroke="none" 
	d="
M610.326172,615.104309 
	C610.301636,614.869324 610.544006,614.604309 611.065918,614.354736 
	C611.094727,614.604858 610.843933,614.839600 610.326172,615.104309 
z"/>
<path fill="#2C3B6C" opacity="1.000000" stroke="none" 
	d="
M572.326416,639.096680 
	C572.291931,638.859070 572.526733,638.588074 573.040405,638.316895 
	C573.078064,638.565613 572.836853,638.814392 572.326416,639.096680 
z"/>
<path fill="#2C3B6C" opacity="1.000000" stroke="none" 
	d="
M578.450317,635.273254 
	C578.432190,635.032349 578.636536,634.772339 579.092529,634.605225 
	C579.202881,634.982971 578.979126,635.168335 578.450317,635.273254 
z"/>
<path fill="#2C3B6C" opacity="1.000000" stroke="none" 
	d="
M597.388672,623.215759 
	C597.379883,622.976501 597.609924,622.715820 598.104980,622.540649 
	C598.208313,622.927673 597.960815,623.117065 597.388672,623.215759 
z"/>
<path fill="#1E2F63" opacity="1.000000" stroke="none" 
	d="
M853.811401,485.443085 
	C854.043701,485.361084 854.366394,485.542450 854.754761,486.005859 
	C854.514160,486.094055 854.208008,485.900238 853.811401,485.443085 
z"/>
<path fill="#1E2F63" opacity="1.000000" stroke="none" 
	d="
M842.692810,474.712769 
	C842.929138,474.592865 843.269836,474.697418 843.632935,475.093933 
	C843.304199,475.360870 843.018127,475.211273 842.692810,474.712769 
z"/>
<path fill="#1E2F63" opacity="1.000000" stroke="none" 
	d="
M836.317322,777.098022 
	C836.297913,776.861511 836.550476,776.593384 837.091675,776.344971 
	C837.116638,776.598633 836.852966,776.832520 836.317322,777.098022 
z"/>
<path fill="#1E2F63" opacity="1.000000" stroke="none" 
	d="
M843.730103,475.608337 
	C843.970337,475.496338 844.308350,475.630249 844.694946,476.051331 
	C844.438354,476.177063 844.133118,476.015686 843.730103,475.608337 
z"/>
<path fill="#1E2F63" opacity="1.000000" stroke="none" 
	d="
M851.837402,483.412445 
	C852.066895,483.334656 852.384705,483.522308 852.773010,483.988770 
	C852.537537,484.071014 852.231689,483.874451 851.837402,483.412445 
z"/>
<path fill="#1E2F63" opacity="1.000000" stroke="none" 
	d="
M852.823120,484.426147 
	C853.056335,484.346710 853.375366,484.533783 853.760132,485.001923 
	C853.520203,485.086212 853.214600,484.889435 852.823120,484.426147 
z"/>
<path fill="#1E2F63" opacity="1.000000" stroke="none" 
	d="
M839.274475,740.634583 
	C839.359863,740.885559 839.241394,741.206421 838.841553,741.452515 
	C838.641052,741.085632 838.811279,740.861206 839.274475,740.634583 
z"/>
<path fill="#1E2F63" opacity="1.000000" stroke="none" 
	d="
M840.374817,739.672974 
	C840.452209,739.921997 840.299500,740.247803 839.852539,740.536743 
	C839.655579,740.173035 839.850952,739.922974 840.374817,739.672974 
z"/>
<path fill="#1E2F63" opacity="1.000000" stroke="none" 
	d="
M841.454285,738.712280 
	C841.532715,738.961060 841.359497,739.287231 840.889771,739.615356 
	C840.796326,739.341431 840.999512,739.065552 841.454285,738.712280 
z"/>
<path fill="#1E2F63" opacity="1.000000" stroke="none" 
	d="
M841.777710,473.391724 
	C842.041199,473.359314 842.325867,473.592377 842.563416,474.114502 
	C842.277161,474.154785 842.038086,473.905975 841.777710,473.391724 
z"/>
<path fill="#1E2F63" opacity="1.000000" stroke="none" 
	d="
M842.512085,737.759766 
	C842.588318,738.001099 842.404541,738.326111 841.926270,738.680542 
	C841.838562,738.421082 842.045349,738.132263 842.512085,737.759766 
z"/>
<path fill="#1E2F63" opacity="1.000000" stroke="none" 
	d="
M854.804077,486.448364 
	C855.038757,486.367889 855.360046,486.551544 855.739990,487.019226 
	C855.496033,487.106323 855.193359,486.909424 854.804077,486.448364 
z"/>
<path fill="#1E2F63" opacity="1.000000" stroke="none" 
	d="
M855.781067,487.467468 
	C856.019165,487.393036 856.338623,487.580688 856.694580,488.058167 
	C856.441589,488.141846 856.151978,487.935669 855.781067,487.467468 
z"/>
<path fill="#1E2F63" opacity="1.000000" stroke="none" 
	d="
M856.727173,488.524506 
	C856.972534,488.455139 857.292114,488.636871 857.606995,489.113525 
	C857.335327,489.197479 857.068298,488.986542 856.727173,488.524506 
z"/>
<path fill="#1E2F63" opacity="1.000000" stroke="none" 
	d="
M853.399963,726.725464 
	C853.503418,726.958984 853.363708,727.299377 852.933716,727.688477 
	C852.814514,727.435547 852.985657,727.133911 853.399963,726.725464 
z"/>
<path fill="#1E2F63" opacity="1.000000" stroke="none" 
	d="
M854.352356,725.696899 
	C854.453491,725.930847 854.323181,726.271118 853.898438,726.635376 
	C853.776306,726.373962 853.948608,726.088623 854.352356,725.696899 
z"/>
<path fill="#1E2F63" opacity="1.000000" stroke="none" 
	d="
M855.225220,724.690918 
	C855.338928,724.915771 855.249268,725.253601 854.866577,725.596130 
	C854.620178,725.277344 854.769592,725.011719 855.225220,724.690918 
z"/>
<path fill="#1E2F63" opacity="1.000000" stroke="none" 
	d="
M856.147400,723.695679 
	C856.252197,723.919495 856.180542,724.234436 855.830200,724.498108 
	C855.611572,724.176086 855.751343,723.956116 856.147400,723.695679 
z"/>
</svg>